<svg width="53" height="52" viewBox="0 0 53 52" fill="none" xmlns="http://www.w3.org/2000/svg">
<path d="M8.2459 3.73016L8.23923 2.59953C8.23632 1.84085 8.21515 1.1735 8.80515 0.597412C9.36674 0.0437078 9.93363 0.0337064 10.6604 0.0179809C11.9348 -0.00961101 12.869 0.762642 12.858 2.0739C12.8535 2.62102 12.8641 3.18327 12.8412 3.73199L35.464 3.72804L35.4595 2.57358C35.4582 1.8029 35.4381 1.19923 36.0286 0.599342C36.8236 -0.208865 38.5616 -0.19256 39.3525 0.605162C40.0951 1.35445 39.9038 2.7465 39.8957 3.73518L42.1885 3.73003C43.8262 3.72682 45.1172 3.67642 46.382 4.90179C47.6904 6.16954 47.4761 7.65488 47.4752 9.31718L47.4726 13.4122L47.48 27.9336C47.479 28.225 47.4697 28.5511 47.256 28.7804C47.0767 28.9727 46.8022 28.7816 46.6743 28.626C46.6073 28.5446 46.5807 28.4073 46.5765 28.3054C46.5704 27.6854 46.5733 27.0576 46.5739 26.4379L46.5756 18.1142C46.5756 17.3164 46.5558 16.4101 46.5807 15.6203L0.899938 15.6184C0.932892 16.5644 0.914441 17.5729 0.914602 18.5247L0.924768 22.7728L0.940662 41.437C0.940662 42.3329 0.912499 43.2703 0.993654 44.1633C1.04697 44.7502 1.49943 45.5346 1.92382 45.9433C2.80358 46.7904 4.03746 46.9463 5.22634 46.8187C5.4105 46.8544 6.35132 46.8878 6.42195 46.6588C6.59747 46.6534 6.61314 46.6476 6.77477 46.7032C6.8871 46.6598 6.99972 46.6231 7.12095 46.6206C8.17724 46.5968 9.23479 46.5981 10.2904 46.5974L16.9361 46.61C19.5722 46.5855 22.2085 46.5881 24.8445 46.6177C25.378 46.6267 26.4472 46.553 26.9312 46.663L27.0199 46.6752C27.0063 46.6846 26.9655 46.7318 26.9525 46.746L26.9561 46.7917C27.1493 46.8737 28.0794 46.838 28.3222 46.8122C28.3597 46.7219 28.3497 46.7161 28.3523 46.6154L28.3733 46.6537C28.4034 46.7097 28.3921 46.6871 28.418 46.7466L28.4662 46.763C28.5336 46.6797 28.5853 46.6386 28.7019 46.6961C28.7071 46.7264 28.7064 46.7608 28.7255 46.7855L28.7346 46.7572C28.8874 46.8711 29.1719 46.8569 29.3513 46.801C29.6015 46.9338 30.4529 46.6576 30.6163 47.0123C30.9368 47.7075 30.212 47.7185 29.7834 47.7146C29.0803 47.7079 28.4086 47.7111 27.7243 47.7111L5.82111 47.7133C5.24453 47.7143 4.36603 47.7394 3.80879 47.6963C3.15517 47.6477 2.52295 47.4432 1.96548 47.1007C1.02004 46.5148 0.422974 45.6333 0.16753 44.5583C0.00994495 43.8948 0.0491794 42.9889 0.0492118 42.2914L0.0505069 39.6956L0.00835899 10.0114C0.00615772 9.08454 -0.0159518 8.14719 0.0222143 7.2245C0.0906156 5.57069 1.20012 4.14549 2.86477 3.83583C3.73867 3.67327 4.71659 3.73412 5.61111 3.73244C6.4876 3.73084 7.37083 3.72045 8.2459 3.73016ZM0.904017 14.7597C1.33505 14.7161 2.25297 14.7419 2.72197 14.7429L6.1524 14.7463L43.3089 14.7413C44.3814 14.7411 45.507 14.7203 46.5759 14.7524L46.5775 9.67041C46.5772 7.65298 46.9349 5.80174 44.6951 4.85236C43.7188 4.52187 42.9104 4.60188 41.8888 4.60555L39.8931 4.60677C39.9047 5.2774 39.9057 5.94816 39.8963 6.61883C40.9099 7.69784 41.0539 9.16992 39.9371 10.2801C39.3097 10.9039 38.2997 11.047 37.4584 11.0139C36.62 10.9761 35.8599 10.7521 35.2779 10.1261C34.3938 9.17475 34.4491 7.53496 35.4339 6.66687L35.4549 6.64861C35.4656 5.9673 35.4685 5.28586 35.464 4.60449L15.4835 4.60439C14.6842 4.60432 13.618 4.57297 12.8426 4.61397C12.8579 5.28972 12.8597 5.96572 12.848 6.64156C13.1481 6.95469 13.3369 7.18311 13.492 7.59255C13.831 8.48704 13.6132 9.56895 12.909 10.2327C11.7641 11.3118 9.27176 11.3037 8.19152 10.1439C7.73935 9.65709 7.50265 9.01042 7.5345 8.34879C7.5659 7.69385 7.82284 7.20672 8.24856 6.72302C8.24059 6.0356 8.23033 5.28853 8.24729 4.60063C6.84521 4.60397 5.3748 4.58374 3.97906 4.61015C3.05556 4.64793 2.31111 4.77007 1.64656 5.4899C1.31371 5.8559 1.08711 6.3048 0.99087 6.78866C0.865107 7.39156 0.903726 8.74354 0.905409 9.39918L0.906639 12.8269C0.907254 13.4469 0.926742 14.148 0.904017 14.7597ZM12.7726 7.87059C12.3389 9.07541 11.5163 9.10332 10.4381 9.09567C9.58641 9.08959 8.80612 8.969 8.4144 8.09924C8.39102 8.04772 8.36849 7.99582 8.34684 7.94356C8.29698 8.49955 8.26147 8.69851 8.4704 9.22003C8.716 9.67597 9.1065 10.0123 9.61541 10.1415C11.2099 10.5464 13.2968 9.9653 12.7925 7.90028C12.7859 7.89041 12.7792 7.8805 12.7726 7.87059ZM10.0532 0.873911C8.89864 1.01882 9.08384 2.20132 9.08345 3.05631L9.08368 6.70488C9.08381 6.82036 9.09041 6.96347 9.08423 7.07618C9.00553 8.51331 10.083 8.25894 11.1335 8.26479C12.1628 8.15012 11.9978 7.31078 11.9975 6.53538L11.9949 4.49872L11.9976 2.7183C11.9981 2.12947 12.1 1.46257 11.5781 1.07249C11.216 0.801843 10.4889 0.825609 10.0532 0.873911ZM39.8478 7.82184C39.6898 8.27158 39.4557 8.69089 38.9818 8.90069C38.3312 9.1888 37.2024 9.15021 36.53 8.95871C36.0846 8.83197 35.7709 8.42366 35.5951 8.02518L35.577 7.9828C35.5452 7.91115 35.5524 7.90549 35.5038 7.86349C35.2555 8.96434 35.6799 9.94723 36.8835 10.1833C38.0061 10.4036 39.3725 10.2675 39.8516 9.04927C39.9646 8.60297 39.986 8.2729 39.8478 7.82184ZM37.2159 0.877159C36.1364 1.05509 36.3137 2.2364 36.3128 3.04785L36.3121 6.48122C36.3131 8.27939 36.3908 8.27959 38.1745 8.26627C39.2013 8.19723 39.0339 7.28017 39.0339 6.53377L39.033 2.84323C39.033 2.5794 39.0278 2.29493 39.0301 2.0339C39.0394 0.856417 38.1437 0.785604 37.2159 0.877159Z" fill="#B3262E"/>
<path d="M6.77477 46.7032C6.8871 46.6598 6.99972 46.6231 7.12095 46.6206C8.17724 46.5968 9.23479 46.5981 10.2904 46.5974L16.9361 46.61C19.5722 46.5855 22.2085 46.5881 24.8445 46.6177C25.378 46.6267 26.4472 46.553 26.9312 46.663C26.8868 46.7318 26.8638 46.8007 26.7874 46.8068C26.194 46.8557 25.4226 46.8338 24.8299 46.8322L8.49176 46.8354C8.02425 46.8354 7.29715 46.8566 6.85411 46.819C6.79765 46.7576 6.81346 46.7804 6.77477 46.7032Z" fill="#B3262E"/>
<path d="M40.9034 29.5766C47.1382 29.1389 52.5462 33.8125 52.9732 40.0072C53.4001 46.2019 48.6839 51.5643 42.4472 51.975C36.2296 52.3847 30.8517 47.7169 30.426 41.5408C30.0003 35.3651 34.6877 30.0127 40.9034 29.5766ZM42.3805 51.1205C48.1359 50.7456 52.4937 45.8044 52.1114 40.0876C51.7291 34.3708 46.7517 30.0458 40.9973 30.4304C35.2497 30.8147 30.9025 35.752 31.2845 41.462C31.6661 47.1718 36.6326 51.4948 42.3805 51.1205Z" fill="#B3262E"/>
<path d="M41.7289 34.1125C42.0688 34.154 42.1937 34.3119 42.1882 34.6457C42.1639 36.1491 42.2695 37.7751 42.1843 39.2688C42.2403 39.2856 42.2957 39.3036 42.3507 39.3229C43.2856 39.6502 43.5783 40.5706 43.2562 41.4518L46.4053 44.2126C46.8572 44.6113 47.322 45.0033 47.7536 45.4224C47.9746 45.6436 47.8296 46.0514 47.5049 46.0549C47.1867 46.0581 46.919 45.7382 46.6882 45.5365C45.3707 44.4316 44.0632 43.1613 42.7495 42.0792C42.2352 42.3782 41.7334 42.494 41.1617 42.2409C40.7758 42.0711 40.4748 41.754 40.3265 41.3614C40.1728 40.9408 40.1977 40.4761 40.3952 40.0738C40.6124 39.6393 40.9464 39.4274 41.3916 39.283C41.4006 38.6057 41.3177 34.7142 41.4362 34.3701C41.4867 34.2238 41.5984 34.1756 41.7289 34.1125ZM41.9914 41.5752C42.2711 41.5084 42.4925 41.2961 42.5692 41.0205C42.6463 40.7452 42.567 40.45 42.3621 40.2493C42.1571 40.0487 41.8587 39.9741 41.5826 40.0548C41.1701 40.1751 40.9296 40.6002 41.0406 41.0128C41.1514 41.4257 41.5735 41.6749 41.9914 41.5752Z" fill="#B3262E"/>
<path d="M41.6431 48.1314C41.6687 48.132 41.6939 48.133 41.7195 48.1336C42.3507 48.1639 42.0519 49.5618 42.0833 49.9811C42.0934 50.1175 41.973 50.2538 41.8732 50.3265C41.2876 50.3223 41.4378 49.7882 41.4278 49.3338C41.42 48.9739 41.3712 48.3742 41.6431 48.1314Z" fill="#B3262E"/>
<path d="M41.7091 31.1578C42.1364 31.235 42.1257 31.5653 42.1028 31.9364C42.0743 32.3998 42.2623 33.1015 41.8282 33.3697C41.6732 33.3507 41.5987 33.3478 41.4925 33.2292C41.3964 32.9571 41.3974 31.7135 41.4848 31.3752C41.5175 31.2479 41.601 31.2112 41.7091 31.1578Z" fill="#B3262E"/>
<path d="M32.4431 40.4909C32.9102 40.4841 33.3741 40.4738 33.8412 40.4828C34.308 40.4921 34.5666 40.8871 34.0629 41.1228C33.7078 41.127 32.3654 41.2694 32.1854 40.8871C32.1025 40.7105 32.2705 40.5603 32.4431 40.4909Z" fill="#B3262E"/>
<path d="M49.3744 40.4925C49.8105 40.4677 51.0237 40.3876 51.2902 40.7066C51.3478 40.9154 51.2189 41.0089 51.0519 41.1167C50.6553 41.134 49.5217 41.2212 49.2045 40.9768C49.0157 40.8314 49.2002 40.6028 49.3744 40.4925Z" fill="#B3262E"/>
<path d="M26.3935 28.0851C27.1833 28.0951 27.9732 28.097 28.7631 28.0909C29.6387 28.0889 31.0084 27.8864 31.0987 29.2016C31.1398 29.7998 31.1152 30.4404 31.1171 31.0433C31.1197 31.802 31.1705 32.6136 31.0414 33.3607C30.9167 33.9389 30.3237 34.1338 29.8116 34.165C29.012 34.1753 28.2124 34.1798 27.4128 34.1791C26.4627 34.1807 25.0798 34.3531 25.0267 33.0188C24.9918 31.902 25.0225 30.7729 25.0135 29.657C25.0054 28.6244 25.2828 28.1333 26.3935 28.0851ZM29.9819 33.3678C30.0987 33.3218 30.1897 33.28 30.2528 33.1642C30.3315 33.0195 30.3302 29.2875 30.2564 29.1193C30.2166 29.0283 30.1256 28.9421 30.0304 28.9148C29.6397 28.8025 26.744 28.8775 26.1319 28.8788C26.0364 28.9363 25.847 29.0466 25.8422 29.1769C25.7952 30.4356 25.8279 31.7068 25.8312 32.9677C25.8315 33.1825 25.9707 33.3395 26.1921 33.3575C26.6673 33.3961 27.1497 33.3665 27.6265 33.3748C28.3986 33.3604 29.2166 33.3935 29.9819 33.3678Z" fill="#B3262E"/>
<path d="M26.2031 19.5289C26.5391 19.5092 26.9516 19.5145 27.2957 19.5218C28.1661 19.5402 29.092 19.4782 29.956 19.5394C31.0074 19.614 31.1311 20.3926 31.1136 21.2559C31.0919 22.314 31.1524 23.4348 31.0964 24.4982C31.0628 25.1488 30.6811 25.4827 30.0618 25.5951C28.742 25.6245 27.3675 25.6037 26.0468 25.5779C25.5389 25.568 25.0688 25.0997 25.0394 24.5945C24.9814 23.6123 25.0248 22.6042 25.0115 21.6187C25.0067 20.5983 24.8969 19.6828 26.2031 19.5289ZM30.0379 24.7986C30.1168 24.7482 30.2709 24.6494 30.2748 24.5424C30.324 23.2725 30.2849 21.9906 30.2874 20.7184C30.2881 20.5443 30.1402 20.3522 29.9705 20.3384C29.5283 20.3022 29.0502 20.317 28.6074 20.3172C27.767 20.3144 26.9263 20.3174 26.0856 20.3262C25.982 20.4019 25.8412 20.4977 25.8373 20.6435C25.8027 21.9048 25.824 23.1754 25.8273 24.4373C25.8279 24.7406 26.128 24.8294 26.3766 24.8162C27.5378 24.7549 28.8971 24.9055 30.0379 24.7986Z" fill="#B3262E"/>
<path d="M6.47844 19.5266C7.00824 19.511 7.70319 19.4866 8.22178 19.5208C9.45627 19.6023 11.3987 19.0481 11.3827 20.9085C11.3719 22.159 11.4298 23.3324 11.36 24.5703C11.3254 25.1848 10.8593 25.5206 10.2918 25.594C9.45553 25.6047 8.61914 25.6082 7.78279 25.6044C5.99397 25.6041 5.16681 25.764 5.28778 23.5807C5.34132 22.6143 5.21734 21.522 5.31384 20.5444C5.38078 19.8661 5.87134 19.6122 6.47844 19.5266ZM10.3093 24.7968C10.3861 24.7524 10.5353 24.6705 10.5403 24.5713C10.6046 23.3032 10.5567 22.017 10.562 20.7449C10.5628 20.5389 10.4425 20.3639 10.2257 20.3439C9.7795 20.3029 9.32148 20.3181 8.87258 20.3185L6.362 20.3265C6.25763 20.4044 6.12022 20.4947 6.11698 20.6408C6.08933 21.8975 6.10481 23.1601 6.10588 24.4172C6.12572 24.7362 6.32196 24.8109 6.6111 24.8133C7.47134 24.8206 8.3313 24.8179 9.19157 24.8174C9.52752 24.8172 9.98092 24.8371 10.3093 24.7968Z" fill="#B3262E"/>
<path d="M6.30189 28.1089C6.91397 28.0738 10.3226 28.0169 10.694 28.2047C10.9827 28.3507 11.2295 28.5935 11.3209 28.908C11.4349 29.3007 11.4235 32.468 11.3728 33.0131C11.3541 33.2144 11.3241 33.4137 11.2201 33.5913C11.0347 33.9074 10.7394 34.055 10.3949 34.1399C10.1077 34.1872 9.73742 34.181 9.44116 34.1769C8.46321 34.1589 7.44687 34.2109 6.47265 34.1598C5.74509 34.1045 5.28856 33.6485 5.29218 32.9124C5.2982 31.6801 5.26295 30.4606 5.30481 29.2322C5.32669 28.5896 5.68556 28.2456 6.30189 28.1089ZM10.3049 33.3539C10.3962 33.2989 10.5459 33.214 10.5503 33.0912C10.5951 31.8434 10.558 30.586 10.5666 29.3354C10.5681 29.1055 10.4571 28.9241 10.2106 28.8981C9.73516 28.8479 9.24961 28.8833 8.77171 28.8736C7.98767 28.8855 7.17074 28.8585 6.39233 28.8813C6.2878 28.9482 6.12099 29.0431 6.1174 29.1852C6.08671 30.4002 6.10416 31.6219 6.10788 32.8378C6.10824 32.9577 6.15977 33.1928 6.22588 33.2935C6.5652 33.4253 9.79611 33.4137 10.3049 33.3539Z" fill="#B3262E"/>
<path d="M35.9191 19.5286C37.1418 19.4877 38.4496 19.5287 39.6768 19.5466C40.142 19.5534 40.747 20.0114 40.7716 20.4872C40.8406 21.8123 40.8157 23.1864 40.7823 24.5148C40.7632 25.1765 40.2738 25.5106 39.6801 25.5952C38.3956 25.6102 37.0877 25.6043 35.8036 25.5836C35.2814 25.5618 34.7725 25.1546 34.7356 24.6143C34.6615 23.5302 34.7149 22.4039 34.7007 21.3175C34.6884 20.3482 34.7709 19.6557 35.9191 19.5286ZM39.7111 24.8003C39.7882 24.7533 39.9487 24.6573 39.953 24.5575C39.996 23.5645 39.9691 22.5444 39.9727 21.5494C39.9743 21.1584 40.1106 20.3677 39.5985 20.3385C39.1068 20.3104 38.6215 20.3172 38.1288 20.3193C37.3648 20.3342 36.5462 20.298 35.7909 20.3242C35.6916 20.3898 35.542 20.4801 35.5378 20.6156C35.4993 21.8682 35.5268 23.1291 35.5271 24.3833C35.5271 24.5768 35.6498 24.7915 35.866 24.8035C36.452 24.8358 37.0444 24.8109 37.6319 24.8173C38.2373 24.7968 39.1488 24.8564 39.7111 24.8003Z" fill="#B3262E"/>
<path d="M16.1799 28.1092C16.6945 28.0668 17.5477 28.0713 18.0756 28.0922C18.8762 28.124 21.0691 27.7912 21.195 28.926C21.3405 30.2391 21.2415 31.7138 21.2438 33.0452C21.2448 33.6588 20.8305 34.0038 20.272 34.1428C19.582 34.2113 18.7142 34.1656 18.0117 34.1772C17.4398 34.1576 16.8699 34.2045 16.2988 34.1531C15.0012 34.0363 15.1573 32.8867 15.1653 31.9367C15.1897 30.9745 15.118 29.985 15.2021 29.0267C15.2465 28.5212 15.7221 28.2037 16.1799 28.1092ZM20.1672 33.3584C20.2471 33.3044 20.4111 33.2086 20.4143 33.1024C20.4523 31.8402 20.4172 30.5693 20.4218 29.3055C20.4237 28.7749 19.7892 28.8604 19.3935 28.873C18.3691 28.9045 17.292 28.8263 16.274 28.8807C16.1643 28.9514 16.0014 29.0502 15.9959 29.2C15.9525 30.3799 15.9926 31.5624 15.9819 32.7442C15.9792 33.0413 15.994 33.3494 16.3947 33.361C17.6158 33.3382 18.9555 33.4443 20.1672 33.3584Z" fill="#B3262E"/>
<path d="M6.48249 36.7971L8.90774 36.7926C9.40257 36.7923 10.4425 36.7225 10.8458 36.9853C11.1143 37.1573 11.2982 37.4332 11.3528 37.7461C11.4286 38.1754 11.3803 39.2045 11.3873 39.6911C11.3739 40.3944 11.4238 41.1083 11.3691 41.8093C11.3188 42.4554 10.888 42.7773 10.2812 42.8664L7.69551 42.8667C7.12331 42.8667 6.29428 42.9526 5.80854 42.6583C5.18749 42.2821 5.28911 41.4379 5.28991 40.8163C5.30471 39.8371 5.25647 38.8459 5.31869 37.8687C5.36411 37.1554 5.84127 36.8862 6.48249 36.7971ZM10.3146 42.0573C10.404 41.9997 10.5487 41.909 10.5523 41.7888C10.5902 40.5211 10.5602 39.2473 10.5665 37.9777C10.5674 37.8008 10.4274 37.6194 10.2417 37.6017C9.13638 37.5509 8.02211 37.5972 6.91471 37.584C6.73171 37.5818 6.53512 37.5808 6.35387 37.5924C6.26165 37.6606 6.12264 37.7532 6.11895 37.8822C6.08292 39.1396 6.11012 40.4031 6.10529 41.6617C6.10448 41.873 6.22643 42.057 6.45805 42.0676C7.55671 42.119 8.66767 42.0759 9.76846 42.0875C9.93887 42.0895 10.1481 42.0898 10.3146 42.0573Z" fill="#B3262E"/>
<path d="M16.2503 36.7933C16.8061 36.7534 17.5946 36.802 18.1782 36.7852C18.8081 36.8029 19.4547 36.7531 20.0822 36.7955C21.1133 36.8653 21.2746 37.5815 21.2598 38.4256C21.2402 39.5425 21.2904 40.623 21.2432 41.7338C21.2156 42.3837 20.8108 42.7326 20.2008 42.8542C19.9297 42.8716 19.6197 42.8648 19.3444 42.8629C18.3392 42.8484 17.3221 42.895 16.3186 42.851C15.5057 42.7834 15.1674 42.2676 15.1678 41.5125C15.1619 40.451 15.1699 39.3869 15.1676 38.3256C15.1658 37.4786 15.317 36.9721 16.2503 36.7933ZM20.052 42.0721C20.1723 42.0493 20.2822 42.02 20.3582 41.9155C20.4068 41.8486 20.417 41.773 20.4228 41.6939C20.4768 40.9527 20.4287 40.1837 20.4288 39.4399C20.4289 39.0489 20.4884 38.2015 20.4084 37.8532C20.3891 37.7693 20.3311 37.6873 20.2555 37.6426C20.0405 37.5156 16.9141 37.5628 16.4148 37.5731C16.2386 37.5898 15.9938 37.6847 16 37.8806C16.02 38.515 15.8483 41.6399 16.1178 42.0052C16.4775 42.1473 19.5067 42.1097 20.052 42.0721Z" fill="#B3262E"/>
<path d="M16.3469 19.5285C16.5864 19.5158 16.8711 19.5218 17.1128 19.5246C18.1052 19.5487 19.1516 19.4723 20.138 19.5486C21.0346 19.618 21.2733 20.3097 21.2583 21.0718C21.2355 22.2233 21.2978 23.3798 21.2378 24.5283C21.2049 25.1588 20.7707 25.5014 20.1807 25.5961L17.5975 25.6005C17.0878 25.6015 16.0576 25.6774 15.6583 25.3902C15.4051 25.206 15.2375 24.9282 15.1934 24.6197C15.1297 24.1491 15.1742 23.141 15.1656 22.6282C15.1853 21.9373 15.1275 21.2291 15.1991 20.5416C15.2692 19.8681 15.7399 19.5992 16.3469 19.5285ZM20.1492 24.8061C20.2543 24.7483 20.3965 24.6786 20.409 24.555C20.446 24.19 20.4309 23.7144 20.4297 23.3542C20.4247 22.4344 20.4245 21.5146 20.4288 20.5949C20.3431 20.4802 20.2508 20.3364 20.091 20.3311C19.0086 20.2954 17.9213 20.3291 16.8379 20.3219C16.6495 20.3206 16.455 20.3186 16.268 20.3238C16.1601 20.3932 16.0026 20.4967 15.9979 20.6456C15.9594 21.8933 15.9871 23.1523 15.9888 24.4013C15.9892 24.6292 16.1492 24.8094 16.3788 24.805C17.5919 24.7821 18.9524 24.8847 20.1492 24.8061Z" fill="#B3262E"/>
<path d="M27.0199 46.6752C27.3646 46.5878 27.9878 46.5945 28.3523 46.6154C28.3497 46.7161 28.3597 46.7219 28.3222 46.8122C28.0794 46.838 27.1493 46.8737 26.9561 46.7917L26.9525 46.746C26.9655 46.7318 27.0063 46.6846 27.0199 46.6752Z" fill="#B3262E"/>
<path d="M5.22634 46.8187L5.25997 46.7238C5.48042 46.5395 6.06538 46.672 6.38126 46.6608L6.42195 46.6588C6.35132 46.8878 5.4105 46.8544 5.22634 46.8187Z" fill="#B3262E"/>
<path d="M28.7346 46.7572C28.8909 46.5096 29.2862 46.5373 29.3513 46.801C29.1719 46.8569 28.8874 46.8711 28.7346 46.7572Z" fill="#B3262E"/>
</svg>
