<svg width="61" height="52" viewBox="0 0 61 52" fill="none" xmlns="http://www.w3.org/2000/svg">
<path d="M30.3707 40.201C33.5619 40.2389 35.986 42.2678 36.3765 45.4743C37.7058 45.42 39.3477 45.4684 40.6896 45.4692L49.0232 45.4663C51.5251 45.4507 54.0271 45.4482 56.5291 45.4587L59.0079 45.4574C59.4582 45.4574 60.4571 45.3628 60.7866 45.6483C60.9103 45.7568 60.9856 45.9112 60.9949 46.076C61.0155 46.5125 60.6334 46.7467 60.2354 46.7543C59.3075 46.7715 58.3793 46.7631 57.451 46.7602L36.3744 46.7472C36.1994 48.0478 35.7836 49.0966 34.887 50.0806C33.8186 51.2458 32.3286 51.9363 30.7486 51.9989C28.6892 52.0355 26.8234 51.123 25.6492 49.4262C25.0418 48.5486 24.8239 47.7858 24.6514 46.7564L3.43001 46.7577C2.57813 46.7572 1.72937 46.7678 0.874888 46.7556C0.492312 46.7501 0.0117777 46.6071 0.000164055 46.1349C-0.0108605 45.6862 0.536115 45.4436 0.927612 45.4461C3.50533 45.465 6.08536 45.4684 8.66379 45.4637L16.8402 45.4726C19.4443 45.4511 22.0484 45.4545 24.6523 45.4823C24.789 44.2085 25.3314 43.0121 26.1995 42.0694C27.2954 40.8789 28.7635 40.2599 30.3707 40.201ZM30.6627 50.6798C33.1963 50.6012 35.1866 48.4847 35.1083 45.9528C35.0304 43.4205 32.9135 41.431 30.3795 41.5084C27.8447 41.5858 25.8528 43.7026 25.931 46.2358C26.0092 48.769 28.1279 50.7589 30.6627 50.6798Z" fill="#B3262E"/>
<path d="M13.8884 0.0393842C15.8423 -0.203 17.8404 0.692188 19.0496 2.20688C19.8179 3.16922 20.1388 4.09069 20.3436 5.27452L56.3246 5.2786C57.5869 5.28478 58.848 5.26931 60.11 5.27381C60.4697 5.28066 60.9797 5.43634 60.9995 5.86909C61.0075 6.0415 60.92 6.25945 60.8017 6.38283C60.6923 6.49708 60.468 6.55873 60.3136 6.56171C59.65 6.57445 58.986 6.57033 58.322 6.57025L20.3365 6.56625C20.1951 7.74197 19.7623 8.78972 18.9943 9.70114C17.9849 10.9119 16.5268 11.6612 14.9542 11.7772C12.4495 11.9666 10.1025 10.5866 9.07914 8.29044C8.82848 7.72801 8.66193 7.19114 8.62015 6.57441L3.25159 6.57189C2.39323 6.57357 1.5353 6.59207 0.67829 6.55091C0.118101 6.52399 -0.223953 5.90079 0.197629 5.49466C0.311325 5.38486 0.456621 5.31346 0.613068 5.29054C0.89899 5.24849 2.68698 5.27675 3.05849 5.27738L8.61207 5.27431C8.79326 2.53185 11.1999 0.316881 13.8884 0.0393842ZM14.9659 10.4559C17.4853 10.1816 19.3042 7.91682 19.027 5.39933C18.7499 2.88184 16.4818 1.06645 13.963 1.34605C11.4479 1.62522 9.63457 3.88784 9.91132 6.40158C10.1881 8.91537 12.4502 10.7299 14.9659 10.4559Z" fill="#B3262E"/>
<path d="M44.6331 19.8045C45.9359 19.7532 47.2193 20.1336 48.2834 20.8867C49.7823 21.9514 50.4345 23.3186 50.7315 25.0728C51.0943 25.0293 51.8605 25.0475 52.2502 25.0472L54.9469 25.0464C56.272 25.0423 57.597 25.0452 58.9221 25.0553C59.35 25.0587 60.4188 24.9547 60.7256 25.1912C60.8779 25.3068 60.973 25.4822 60.9869 25.6731C61.0075 25.9704 60.7807 26.2904 60.4912 26.3064C59.4868 26.3615 58.4062 26.3392 57.4043 26.3392L50.724 26.3329C50.6024 27.4414 50.2178 28.4414 49.5302 29.3274C48.5843 30.53 47.2033 31.3135 45.6851 31.509C44.0933 31.7222 42.4825 31.2861 41.2164 30.2992C39.9877 29.3244 39.1962 27.9023 39.0153 26.3451C37.0149 26.3081 34.9362 26.3379 32.932 26.3384L2.85614 26.3379C2.13294 26.3384 1.38429 26.3426 0.659782 26.3295C0.501231 26.3266 0.302453 26.2429 0.188925 26.1239C0.076492 26.007 0.0158988 25.8497 0.0207378 25.6878C0.0352128 25.2201 0.437986 25.0552 0.846146 25.0519C2.25085 25.0404 3.65605 25.045 5.06096 25.0457L39.0056 25.0475C39.192 23.7507 39.6641 22.6457 40.5612 21.6728C41.6195 20.5386 43.0826 19.8673 44.6331 19.8045ZM45.0531 30.2588C47.5769 30.1608 49.5454 28.0398 49.4528 25.5171C49.3606 22.9949 47.2428 21.0231 44.7186 21.1094C42.1859 21.1962 40.2048 23.3211 40.2974 25.8518C40.39 28.3825 42.5212 30.3572 45.0531 30.2588Z" fill="#B3262E"/>
</svg>
