<svg width="46" height="52" viewBox="0 0 46 52" fill="none" xmlns="http://www.w3.org/2000/svg">
<path d="M9.14154 31.6502C10.0789 31.6179 11.1476 31.6404 12.0901 31.6411L17.1339 31.6417C20.9328 31.6437 24.7329 31.6414 28.5306 31.646C29.6689 31.6473 30.0758 32.3878 30.0294 33.3974C30.0136 33.7451 30.0221 34.135 30.0172 34.4866L33.78 34.4853C34.6508 34.4853 36.3815 34.3252 36.9419 35.0504C38.207 36.6874 39.3391 38.4829 40.5084 40.1905C41.2131 41.2199 41.0171 43.5592 41.0026 44.8377C41.8954 44.8769 42.3405 45.3021 42.3135 46.2172C42.2868 47.1152 42.4779 48.1535 41.7603 48.8519C41.1525 49.4438 40.3321 49.3683 39.5457 49.365L38.1678 49.3578C38.0825 49.6435 37.9988 49.866 37.8539 50.1301C37.3949 50.97 36.6128 51.5899 35.686 51.8494C33.7151 52.4187 31.7281 51.3076 31.1555 49.3588C29.8245 49.3389 28.4275 49.3608 27.0905 49.3608L18.2247 49.3595C18.1267 49.6993 17.981 50.0235 17.7921 50.3232C17.2735 51.135 16.4485 51.7063 15.5017 51.9096C14.416 52.1485 13.4735 51.9014 12.5555 51.318C11.9159 50.8242 11.3836 50.1474 11.197 49.3529C10.6697 49.38 8.42809 49.417 8.01991 49.3108C7.74128 49.2379 7.49613 49.0764 7.35953 48.8196C7.18409 48.4895 7.17941 47.9355 7.29779 47.5816C7.40348 47.2656 7.62505 47.112 7.90687 46.9649C7.87903 46.5195 7.81785 43.786 7.96519 43.5592C8.00877 43.4922 8.0949 43.4481 8.17265 43.438C8.25189 43.4278 8.322 43.4458 8.37771 43.5046C8.44051 43.571 8.46116 43.6543 8.47335 43.7413C8.52472 44.1079 8.49273 44.506 8.49164 44.8772L8.48719 46.9172C9.4096 46.9636 10.4607 46.9054 11.4025 46.9306C11.7261 46.2185 12.3327 45.5913 13.0288 45.2266C13.8775 44.7857 14.8681 44.6968 15.7826 44.9802C16.8342 45.3083 17.5101 45.9828 18.0116 46.9303L29.437 46.9263L29.4347 34.6494C29.435 34.1405 29.4377 33.6438 29.4317 33.1235C29.4653 32.8029 29.2904 32.2816 28.8888 32.2437C28.0661 32.1666 26.9953 32.2025 26.1766 32.2074L22.4886 32.2055L13.8612 32.2127L11.0934 32.2078C10.5232 32.2038 9.95137 32.1927 9.38189 32.1967C9.03938 32.1989 8.69443 32.2986 8.54966 32.6352C8.30193 33.2114 8.76674 35.5527 8.26184 35.8582C8.09523 35.8785 7.9358 35.802 7.91992 35.6249C7.86246 35.0644 7.90608 34.4843 7.89494 33.9206C7.87379 32.8477 7.77927 31.8564 9.14154 31.6502ZM30.0178 46.9195C30.4738 46.9286 30.9137 46.9228 31.3673 46.9254C31.8536 45.9753 32.5076 45.3253 33.5464 44.991C34.4653 44.6995 35.4636 44.7825 36.3212 45.2211C37.0628 45.6024 37.5909 46.1881 37.9609 46.927L38.2581 46.9283C38.584 46.9277 40.1572 46.9626 40.3318 46.8499C40.3815 46.7518 40.4112 46.6473 40.4108 46.5365C40.4066 44.9406 40.4164 43.3435 40.4062 41.7477C40.4006 40.8987 39.7667 40.1068 39.3058 39.4254C38.8867 38.8031 38.4627 38.1842 38.0344 37.5681C37.6021 36.937 37.1752 36.2655 36.71 35.656C36.4151 35.2703 36.0602 35.0664 35.5581 35.0546C33.7118 35.0118 31.8556 35.071 30.0076 35.0429C30.0475 35.5177 30.0244 36.1468 30.0241 36.6393L30.0244 39.4234C30.0244 41.8902 30.0653 44.4661 30.0178 46.9195ZM14.8578 51.436C16.5355 51.354 17.8311 49.9428 17.7568 48.2784C17.6825 46.6139 16.2662 45.3217 14.5878 45.3871C12.8976 45.4531 11.5838 46.8698 11.6586 48.546C11.7335 50.2226 13.1684 51.5187 14.8578 51.436ZM11.2023 47.4865C10.3065 47.4852 8.95757 47.4447 8.09944 47.4983C8.01991 47.5437 7.84671 47.6747 7.83258 47.7757C7.66112 48.9993 8.2054 48.8091 9.21488 48.8065C9.80818 48.8058 10.4015 48.8019 10.9948 48.7947L11.0588 48.7807C11.0883 48.2983 11.051 47.9852 11.2023 47.4865ZM34.494 45.3897C32.8081 45.4815 31.5186 46.9156 31.6187 48.5875C31.7192 50.2595 33.1708 51.5318 34.856 51.4246C36.5301 51.3177 37.8021 49.8892 37.7026 48.2284C37.6028 46.5675 36.169 45.2988 34.494 45.3897ZM41.0111 45.3727C40.9904 45.8972 41.1765 46.8594 40.7489 47.2398C40.3028 47.6365 38.7826 47.4888 38.1629 47.4872C38.3046 47.9927 38.3151 48.278 38.2957 48.8065L38.8182 48.8006C41.1353 48.8137 41.8733 49.033 41.7274 46.2018C41.6977 45.626 41.6276 45.4541 41.0111 45.3727ZM31.0171 48.7068C31.0158 48.2463 31.031 47.9388 31.1473 47.4888L21.8639 47.4891C20.6692 47.4914 19.4091 47.462 18.2205 47.4872C18.3659 48.0973 18.3686 48.179 18.362 48.7977L29.463 48.8016C29.8633 48.8026 30.6003 48.8238 30.9842 48.7843L31.0194 48.7473L31.0171 48.7068Z" fill="#B3262E"/>
<path d="M32.2381 36.3887C32.873 36.3864 35.1265 36.2789 35.5496 36.5109C35.6939 36.5897 35.8435 36.7681 35.9469 36.8965C36.2971 37.3302 38.2397 40.0849 38.3507 40.5209C38.3945 40.6931 38.3349 40.9134 38.2383 41.0585C38.0907 41.2794 37.8802 41.3742 37.6282 41.4294C35.9608 41.5098 34.1665 41.3735 32.4879 41.4278C31.4665 41.4608 31.5406 40.5928 31.5469 39.8519C31.5541 38.9715 31.5251 38.0335 31.5617 37.1498C31.5795 36.6753 31.8016 36.5001 32.2381 36.3887ZM37.669 40.8611C37.7468 40.7627 37.7636 40.7516 37.784 40.6251C37.7461 40.4124 35.5403 37.24 35.3008 37.0224C34.9361 36.8952 32.8012 36.9485 32.2622 36.9505C32.1989 36.9933 32.1469 37.023 32.1449 37.1109C32.1343 37.5636 32.1172 38.1668 32.1429 38.6113C32.1666 39.0215 32.0592 40.5205 32.193 40.7898C32.3195 40.8408 32.4753 40.8719 32.613 40.8735C33.924 40.8885 35.2362 40.8804 36.5475 40.8813C36.8935 40.8817 37.333 40.9039 37.669 40.8611Z" fill="#B3262E"/>
<path d="M31.8648 42.5905C32.191 42.5798 33.1079 42.4673 33.3072 42.7902C33.4726 43.0579 33.3013 43.2586 33.0575 43.3974C32.7297 43.4069 32.364 43.4324 32.0401 43.4043C31.4961 43.3572 31.4046 42.8781 31.8648 42.5905Z" fill="#B3262E"/>
<path d="M14.4109 46.9074C15.2552 46.7456 16.0715 47.2947 16.2322 48.1326C16.393 48.9706 15.8371 49.7784 14.9919 49.9356C14.1501 50.0918 13.3395 49.5435 13.1793 48.7088C13.0193 47.8741 13.5701 47.0685 14.4109 46.9074ZM14.8252 49.3859C15.3592 49.3186 15.7371 48.8346 15.6691 48.3048C15.6011 47.7751 15.1129 47.4002 14.5789 47.4679C14.045 47.5352 13.6673 48.0195 13.7353 48.549C13.8033 49.0787 14.2912 49.4536 14.8252 49.3859Z" fill="#B3262E"/>
<path d="M34.379 46.9038C35.2241 46.7531 36.0322 47.3107 36.1838 48.1489C36.3354 48.9872 35.7726 49.7886 34.9275 49.9386C34.0828 50.0882 33.2759 49.5307 33.1247 48.6931C32.9732 47.8555 33.5349 47.0545 34.379 46.9038ZM34.7911 49.3846C35.3219 49.3121 35.6939 48.8284 35.6244 48.3019C35.5552 47.7751 35.0702 47.4025 34.5388 47.4679C34.0017 47.5336 33.6219 48.0205 33.692 48.5526C33.7622 49.0843 34.2554 49.4578 34.7911 49.3846Z" fill="#B3262E"/>
<path d="M23.1524 12.3385C23.9725 12.2641 25.1042 12.4957 25.86 12.7883C27.5702 13.4507 28.9372 14.7433 29.6551 16.4207C30.5433 18.4965 30.29 20.2574 29.4627 22.281C28.3735 24.9448 26.797 27.5324 25.0311 29.8074C24.6696 30.2731 24.2384 30.9303 23.7165 31.159C23.4051 31.2309 22.9838 31.1711 22.7693 30.9162C20.4162 28.1213 18.0594 24.5305 16.9352 21.0489C15.5669 16.8113 18.6974 12.6091 23.1524 12.3385ZM23.4424 30.642C23.7932 30.5352 24.2239 29.8842 24.4654 29.5714C25.7282 27.9543 26.8467 26.2314 27.8081 24.4221C28.4855 23.1576 29.4159 21.1425 29.5787 19.7287C29.6689 18.8947 29.5869 18.0511 29.3372 17.2497C28.8522 15.6847 27.7623 14.3738 26.3058 13.6038C25.3526 13.1099 24.4673 12.918 23.4045 12.8949C21.6539 12.9719 20.0776 13.597 18.8786 14.8929C17.7601 16.1018 17.1459 17.6749 17.2191 19.3214C17.3468 22.195 20.3395 26.8814 22.0902 29.1724C22.4256 29.6113 22.7551 30.1325 23.1633 30.5051C23.2565 30.5901 23.3188 30.6188 23.4424 30.642Z" fill="#B3262E"/>
<path d="M23.1277 15.9898C24.98 15.8219 26.6178 17.178 26.7825 19.0159C26.9469 20.8538 25.5757 22.475 23.7224 22.6335C21.8758 22.7915 20.2487 21.4373 20.0847 19.6059C19.9207 17.7746 21.2819 16.1571 23.1277 15.9898ZM23.8216 22.0438C25.3473 21.8277 26.4049 20.4222 26.1802 18.9096C25.9555 17.3972 24.5336 16.3543 23.0098 16.5843C21.496 16.8127 20.4529 18.2119 20.6763 19.7147C20.8997 21.2174 22.3054 22.2585 23.8216 22.0438Z" fill="#B3262E"/>
<path d="M23.8954 0.0117767C24.523 -0.0595335 26.0336 0.190183 26.4039 0.837987C26.5413 1.07826 26.3898 1.24957 26.7558 1.38533C26.8932 1.3635 27.2823 0.913905 27.4895 0.843184C28.159 0.609808 28.872 1.07349 29.4439 1.3165C30.5097 1.7691 30.5654 2.21036 30.261 3.22678C30.1948 3.44774 30.4837 3.76811 30.5789 3.71559C31.1209 3.41679 31.2372 3.0986 31.9327 3.10288C32.4351 2.52195 33.356 2.41073 34.0802 2.60064C34.7493 2.77604 35.1624 3.10364 35.5077 3.70121C35.5588 3.71284 35.6099 3.72503 35.6606 3.73785C36.1225 3.8552 36.2128 4.04266 36.446 4.42957C36.5679 4.39271 36.6994 4.35303 36.8282 4.36467C36.9847 4.378 37.1294 4.45274 37.2302 4.57226C37.4526 4.83779 37.6005 6.20076 37.4967 6.5327C37.4229 6.7679 37.1158 7.01376 37.1221 7.25877C37.1317 7.62814 38.0196 8.24666 37.8239 9.49743C37.7399 10.0348 37.1195 10.3439 37.0931 10.9293C37.0677 11.4934 37.8657 11.7376 38.2004 12.1039C38.4868 12.4173 38.4581 12.772 38.4314 13.1639C38.5358 13.3465 38.7889 13.6278 38.8597 13.788C39.2155 14.5919 39.2406 15.1927 40.0369 15.7135C40.4296 15.9704 40.8421 16.1443 41.2381 16.4064C41.8549 16.7892 42.0549 17.5287 41.8028 18.1955C41.6562 18.5837 41.2704 19.1463 42.1135 18.9182C42.3039 18.8667 42.4479 18.8285 42.643 18.8122C43.1826 18.7671 43.5701 19.0189 43.9941 19.301C44.4913 19.6136 44.7288 19.618 44.9021 20.2124C44.8751 20.3208 44.7436 20.6968 44.7568 20.7796C44.852 21.3638 45.7258 21.3548 45.93 21.9764C46.0556 22.3591 46.0029 22.8217 45.846 23.1675C45.6856 23.5223 45.3317 23.6323 45.0042 23.7493C44.5878 24.2802 44.2827 24.6522 43.6524 25.0015C43.0495 25.3355 42.2305 25.3487 41.6338 24.9676C41.3933 24.7628 41.2974 24.5366 40.9653 24.4519C40.4283 24.3148 39.9908 24.5259 39.8689 25.0838C39.8145 25.3315 39.8942 25.4914 40.0507 25.6902C40.2329 25.9212 40.4533 26.1294 40.6125 26.3771C40.9172 26.8562 40.848 27.2236 40.7265 27.7432C40.8233 28.0403 41.0134 28.2592 41.0615 28.5929C41.1166 28.9717 41.0009 29.6077 41.0951 29.9525C41.1907 30.3031 41.5086 30.7172 41.5419 31.1231C41.5594 31.3339 41.5587 31.6123 41.3973 31.7705C40.7835 32.3715 40.166 31.8123 39.5292 31.8408L39.4788 31.8434C38.9592 32.2346 38.7932 32.3012 38.1619 32.1074C37.9155 32.2575 37.6361 32.4052 37.3817 32.5464L37.3715 32.9212C37.2994 33.0418 37.1962 33.1346 37.0948 33.263C36.9333 33.467 36.7804 33.8219 36.5432 33.9386C36.4599 33.9794 36.4088 33.9516 36.3409 33.9271C36.0052 33.582 36.5301 33.0173 36.8058 32.7823C36.9254 32.2748 37.0994 32.0489 37.588 31.8094C38.0278 31.5934 38.2535 31.6051 38.6996 31.7519C39.798 30.8175 40.4056 31.7179 40.9169 31.4914C41.1426 31.2473 40.9116 30.843 40.7759 30.5992C40.5149 30.1783 40.4234 29.5969 40.4981 29.1099C40.5943 28.4864 40.2876 28.2975 40.1809 27.7658C40.1328 27.5249 40.369 27.1916 40.2362 26.8657C40.0109 26.2856 39.2389 25.8366 39.2966 25.1448C39.3493 24.5121 39.8666 23.8153 40.5663 23.9394C40.7281 23.9681 40.9508 23.8974 41.1406 23.9417C41.704 24.0734 41.9076 24.7188 42.5197 24.7459C43.4821 24.7771 44.031 23.9748 44.6422 23.3861C44.7884 23.2453 45.1166 23.1811 45.3413 22.9841C45.7686 21.5388 44.7571 22.0859 44.2725 21.0881C44.1167 20.7674 44.3951 20.4172 44.2933 20.1196C44.2429 20.0596 43.2248 19.4432 43.1088 19.3912C42.5412 19.137 41.5356 19.8672 41.1162 19.0933C40.7713 18.4564 41.6997 17.8771 41.25 17.1927C40.7861 16.5177 39.7684 16.3797 39.2205 15.7424C38.8011 15.4719 38.523 14.1682 38.3415 13.9633C37.7105 13.2511 38.0252 13.1979 37.8927 12.5769C37.5768 12.1444 36.7702 11.8763 36.5933 11.3555C36.247 10.3372 37.3419 9.94555 37.304 9.0497C37.2743 8.35509 36.9007 8.08038 36.621 7.53111C36.3726 7.04308 36.9666 6.66574 36.9897 6.22452C36.9396 5.94228 36.9465 5.18173 36.8747 4.98175C36.6016 4.749 36.2978 5.15601 35.7545 4.30274C35.034 4.07459 35.1878 4.0004 34.6528 3.47813C34.3819 3.21377 33.7747 2.98442 33.4077 3.0334C33.1435 3.06867 32.9886 3.10788 32.6944 3.11991C32.2585 3.50159 32.1857 3.60212 31.6148 3.59235C31.2204 3.89442 30.8609 4.40588 30.3506 4.17946C29.3671 3.72079 29.8162 3.10922 29.8719 2.32367C29.8953 1.99143 28.3731 1.44507 28.1086 1.2782C27.6786 1.00708 27.1627 2.16484 26.5219 1.84192C26.0501 1.60406 26.1723 1.59498 25.9364 1.10774C25.5855 0.640659 24.129 0.35166 23.5942 0.639156C23.4203 0.732852 23.3722 0.880897 23.3346 1.04496C23.1501 1.32748 22.962 1.3633 22.65 1.46393C22.3591 1.79714 22.333 2.0467 21.8889 2.2852C21.6983 2.47632 21.7004 2.99301 21.631 3.22054C21.4376 3.85488 21.0098 3.78546 20.4898 3.61735L20.4389 3.63222C19.9126 3.78471 19.7312 3.67788 19.2702 3.42646C18.7436 3.42411 18.5602 3.5299 18.1348 3.82599C18.0074 4.5132 17.6715 4.63524 17.031 4.72066C16.5157 5.26497 16.7364 5.53089 16.67 6.18638C16.6476 6.40776 16.5069 6.63349 16.4285 6.8484C16.4322 6.87301 16.4359 6.89762 16.4397 6.92222C16.8406 7.00922 17.2098 6.9955 17.5154 7.31355C17.8409 7.65222 17.5652 8.00825 17.2602 8.23944L17.2387 8.30133C17.1672 8.51177 17.124 8.63752 16.9229 8.76609C16.5658 8.9944 15.8083 8.93655 15.4143 8.85217C15.2934 8.94198 15.212 9.01744 15.1028 9.1179C15.1154 9.75048 14.9562 10.1091 14.3014 10.3652C14.0762 10.4532 13.8617 10.4347 13.6221 10.4356L13.5986 10.4515C12.9128 10.9047 12.7138 11.6003 12.8375 12.3557C12.9613 13.1114 12.8088 13.2784 12.4033 13.8864C12.2444 14.1247 12.094 14.5406 12.0264 14.8288C12.5412 15.0959 12.83 15.2649 12.8704 15.9051C12.9455 17.0984 10.9722 17.1893 10.919 16.0289C10.9162 15.9682 10.9298 15.8503 10.8642 15.8284C10.415 15.6125 10.0259 16.3797 9.65184 16.4333C9.04003 16.5208 8.85302 16.1568 8.43598 16.8092C8.50145 17.7241 8.17725 18.0894 7.23936 17.8662C6.73558 18.1729 6.2656 18.6815 5.64103 18.3099C5.04776 17.9569 5.07164 18.0518 4.42471 18.1806C4.33091 18.1992 3.87061 18.0614 3.79813 18.0746C3.31579 18.1624 3.04342 18.1468 2.57008 18.0802C2.47022 18.0651 2.45242 18.2731 2.45697 18.3759C2.50936 19.5583 2.71817 20.7069 3.054 21.8423C3.26515 22.6964 3.77526 23.7455 3.81608 24.6069C3.90902 26.5687 4.15019 27.2301 2.12141 28.0658C1.69063 28.2429 -0.315121 30.1074 1.06396 30.492C2.07479 30.7741 2.29761 31.8084 1.96531 32.6892C1.84466 33.1464 1.95111 33.5415 1.54191 34.0065C1.22042 34.4468 1.82479 35.2873 1.93915 35.7092C1.95872 35.7857 2.00824 35.7994 2.0737 35.8158C2.15923 35.7442 2.18961 35.6828 2.20572 35.5739C2.3441 34.6383 3.15303 34.8667 3.73513 34.6196C4.14618 34.4451 4.68867 33.8873 5.14884 33.7487C5.3508 33.6879 5.51501 33.7359 5.53718 33.9559C5.40319 34.3461 4.09685 35.0386 3.67715 35.2095C3.60338 35.2396 3.19837 35.2334 3.08964 35.2324C2.97051 35.3043 2.89173 35.3713 2.7839 35.4579C2.60849 36.5753 1.78993 36.6419 1.3162 35.6082C0.92489 34.7543 0.678548 34.1294 1.37431 33.2666C1.36232 32.7715 1.6171 32.1473 1.57414 31.7512C1.48785 30.9548 0.383775 30.9969 0.075823 30.3407C-0.336767 29.4613 1.03809 28.0958 1.70335 27.6684C2.07192 27.4314 2.85523 27.1592 3.12269 26.8742C3.22473 26.7654 3.24897 26.5474 3.26288 26.403C3.32123 25.796 3.31842 24.8597 3.20433 24.2661C3.06138 23.5224 2.74466 22.8018 2.52823 22.076C2.29112 21.2808 1.6704 18.6896 1.9771 17.9696C2.05222 17.7932 2.19633 17.6641 2.37609 17.5959C2.42804 17.5761 2.46346 17.5644 2.51845 17.5642C2.73339 17.5635 2.9482 17.6084 3.16381 17.6085C3.38768 17.6087 3.61214 17.57 3.83611 17.5836C4.03788 17.5958 4.24165 17.6349 4.44339 17.6374C4.71994 17.6407 4.96865 17.5079 5.25476 17.5541C5.49336 17.5925 5.65595 17.7726 5.87043 17.8653C6.36074 18.0771 6.57783 17.5041 6.99111 17.4217C7.22645 17.3748 7.56761 17.5089 7.75972 17.4299C8.15501 17.0551 7.5375 15.6513 9.53301 15.9565C10.0023 15.498 10.9413 14.7901 11.3675 15.6767C11.4741 15.8984 11.4806 16.5112 12.0215 16.3726C12.3946 16.277 12.3334 15.8252 12.2456 15.5345C12.0995 15.4492 11.8306 15.3695 11.7101 15.2697C11.2487 14.8873 11.611 14.2668 11.8054 13.8394C11.9305 13.5643 12.2149 13.2913 12.3213 13.0071C12.3962 12.7394 12.2628 12.4191 12.2592 12.1567C12.2497 11.4588 12.3899 10.8092 12.9001 10.2991C13.2821 9.91718 13.6388 9.90807 14.1377 9.90715C14.3051 9.74015 14.393 9.65753 14.5799 9.51413C14.5555 8.63645 15.0172 8.33205 15.8386 8.3748C16.1575 8.3914 16.3101 8.35049 16.6511 8.42095C16.7001 8.24097 16.7343 7.99338 16.9017 7.88138C16.9942 7.81952 17.0851 7.74785 17.0967 7.63912C16.9041 7.40829 16.4484 7.55258 16.1835 7.38319C15.5473 6.98193 16.1019 6.46698 16.1448 6.07144C16.2017 5.54759 16.0238 5.26582 16.3726 4.7153C16.6362 4.29937 16.7786 4.33346 17.2261 4.22502C17.597 4.15303 17.5244 3.83226 17.6688 3.63431C18.3032 2.7645 19.192 2.77751 19.9618 3.20364C20.6838 3.05553 20.409 3.18589 20.9969 3.22665C21.1813 3.11177 21.1648 2.39478 21.3467 2.13343C21.4632 1.91516 21.7206 1.81241 21.8771 1.64452C22.248 1.24644 22.1957 1.03414 22.7894 0.906225C23.0065 0.310155 23.2862 0.132795 23.8954 0.0117767Z" fill="#B3262E"/>
<path d="M6.20744 42.2111C6.36849 42.1931 6.59058 42.1441 6.69186 42.2507C6.7023 42.2595 6.71274 42.2686 6.72319 42.2778C6.74823 42.3164 6.92505 42.3392 6.96327 42.3356C7.52293 42.2833 10.0625 42.3954 10.4428 42.3003L10.462 42.2297C10.5657 42.152 11.206 42.1556 11.3104 42.2624L11.238 42.3157C11.6466 42.4226 12.8681 42.1242 13.0325 42.5621C12.9596 43.0353 12.22 42.886 11.8762 42.8974C11.5897 42.9072 11.2785 42.8961 10.9893 42.8961C10.181 42.8984 4.44121 42.9598 4.16515 42.8582C4.09359 42.8317 4.0192 42.7647 4.00006 42.6902C3.97989 42.6115 3.9908 42.5392 4.04091 42.4739C4.2918 42.1471 5.86661 42.4258 6.32276 42.2974L6.31544 42.2647C6.23285 42.2513 6.27007 42.2654 6.20744 42.2111Z" fill="#B3262E"/>
<path d="M5.5022 36.3926L10.5914 36.3906C11.4223 36.388 12.2732 36.3782 13.1054 36.3854C13.1873 36.386 13.3492 36.4151 13.4245 36.4468C13.5436 36.4968 13.5824 36.5197 13.6343 36.6374C13.6295 36.8629 13.5153 36.9155 13.3141 36.9508C10.7017 37.0083 8.03984 36.9191 5.42342 36.9426C5.21727 36.9446 5.01811 36.9214 4.99535 36.6913C5.10931 36.4043 5.20564 36.3991 5.5022 36.3926Z" fill="#B3262E"/>
<path d="M2.14085 39.2613C2.64707 39.2375 3.27695 39.2558 3.79487 39.2558L8.94119 39.2518C9.30311 39.2512 9.69925 39.2371 10.0576 39.2623C10.4122 39.2875 10.4879 39.6097 10.1485 39.8091C9.72179 39.8319 9.10177 39.813 8.66447 39.813L3.52846 39.8156C3.20937 39.8156 2.18935 39.8787 1.97302 39.6947C1.87797 39.4888 1.97065 39.379 2.14085 39.2613Z" fill="#B3262E"/>
<path d="M8.12266 40.3261C8.68427 40.4163 8.50188 41.165 8.46521 41.5797C8.45351 41.7118 8.35289 41.7739 8.24549 41.8392C7.77392 41.715 7.87625 41.2454 7.88185 40.85C7.88538 40.6029 7.93018 40.4826 8.12266 40.3261Z" fill="#B3262E"/>
<path d="M8.09423 37.4518C8.50632 37.4528 8.5255 37.8266 8.51071 38.1636C8.49947 38.4198 8.49074 38.5705 8.28634 38.7443C7.9125 38.7407 7.86067 38.4306 7.87158 38.108C7.88054 37.8436 7.89286 37.642 8.09423 37.4518Z" fill="#B3262E"/>
</svg>
