<svg width="38" height="52" viewBox="0 0 38 52" fill="none" xmlns="http://www.w3.org/2000/svg">
<path d="M27.3633 20.8844C28.1468 20.8832 28.9388 21.1232 29.4772 21.724C29.8226 22.1095 30.1845 22.4868 30.7104 22.6136C31.2484 22.7434 31.7925 22.4952 32.3366 22.5546C33.5427 22.6498 34.6777 23.5303 35.0145 24.7054C35.1628 25.2251 35.1167 25.8914 35.4754 26.3416C35.9984 26.9971 36.6575 26.9336 37.257 27.6555C37.84 28.2612 38.2234 29.7027 37.8554 30.4893C37.2781 31.7226 37.1291 32.0534 37.8018 33.3458C38.3212 34.3432 37.7439 36.2331 36.7583 36.7951C35.9266 37.2692 35.1885 37.4746 35.131 38.6641C35.0767 39.4598 34.688 40.0985 34.0864 40.6246C34.6034 42.2768 35.0621 43.9506 35.5665 45.6075C35.9616 46.9049 36.4528 48.3112 36.7733 49.614C36.8033 49.7362 36.8254 49.8341 36.7729 49.9534C36.7361 50.0369 36.6418 50.1502 36.5471 50.1678C36.2528 50.2233 33.2376 48.8359 32.7535 48.6241C32.4616 49.0736 30.7358 51.8404 30.401 51.9634C30.3174 51.9938 30.1988 51.9612 30.1231 51.92C30.0334 51.8713 29.982 51.8161 29.9405 51.7232C29.8098 51.4279 29.7312 51.0874 29.6365 50.7774L29.0621 48.8947C28.5205 47.1188 27.8546 45.0713 27.3976 43.2843C27.3362 43.3137 26.8035 45.1785 26.7449 45.372L25.4742 49.5434C25.2702 50.2158 25.0051 51.2953 24.6815 51.8702C24.3485 52.4612 23.4711 50.8566 23.3103 50.6143L21.9817 48.6227C21.3548 48.88 18.6447 50.1466 18.2049 50.1635C18.0263 50.0982 17.8946 49.943 17.9382 49.742C18.0129 49.3976 18.124 49.0574 18.226 48.7198L18.7879 46.854L20.6906 40.5622C19.3252 39.3333 20.0601 38.8229 19.2899 37.537C19.0741 37.1761 18.2228 36.9374 17.8079 36.5524C16.9346 35.7424 16.6029 34.5486 16.9686 33.4089C17.148 32.8498 17.4529 32.5297 17.4345 31.8997C17.4109 31.0872 16.8552 30.642 16.8235 29.822C16.7842 28.8092 17.2367 27.7038 18.1019 27.1437C18.5797 26.8523 19.0991 26.7057 19.4013 26.1914C19.6482 25.8011 19.6546 25.366 19.7375 24.9224C20.0001 23.5179 21.4519 22.4348 22.8641 22.5507C23.3268 22.5887 23.773 22.7498 24.2313 22.5688C24.6011 22.4228 24.889 22.2035 25.1462 21.9029C25.7707 21.1768 26.4095 20.9339 27.3633 20.8844ZM27.5159 42.1449C29.1185 41.9571 28.8066 41.3149 29.9588 40.6723C30.6572 40.2827 31.3456 40.4873 32.0569 40.5845C32.7299 40.6766 33.4902 40.2537 33.9171 39.7182C34.5469 38.9279 34.2529 38.2201 34.7387 37.3786C35.4207 36.1969 36.595 36.5689 37.0937 35.1149C37.2134 34.7733 37.2527 34.4085 37.2084 34.049C37.1084 33.2874 36.595 32.9136 36.5839 32.0592C36.5729 31.18 36.9008 30.9406 37.1538 30.1847C37.4156 29.403 37.0309 28.3185 36.3549 27.8422C36.0749 27.6451 35.8255 27.5422 35.5372 27.3773C34.8699 26.9956 34.4933 26.3161 34.4069 25.5613C34.319 24.7884 34.1061 24.2491 33.4802 23.7696C32.3105 22.8737 31.506 23.6695 30.3403 23.2879C29.0535 22.8666 29.0128 21.6305 27.4112 21.6362C25.6146 21.7391 25.824 22.8429 24.4886 23.287C23.2489 23.6994 22.2404 22.7092 20.9836 24.0923C20.2837 24.8008 20.5435 25.7025 20.0851 26.5283C19.4278 27.7132 18.2771 27.4014 17.7518 28.778C17.2203 30.1707 18.0781 30.5589 18.2035 31.8212C18.2692 32.4806 17.9214 33.0526 17.6901 33.6368C17.4125 34.4099 17.682 35.455 18.3181 35.9851C18.889 36.461 19.5128 36.4954 19.9811 37.2001C20.7185 38.3097 20.0558 39.2799 21.453 40.1737C21.8342 40.4174 22.3508 40.5823 22.7873 40.511C23.6315 40.373 24.5293 40.2694 25.2327 40.907C26.078 41.6736 26.1683 42.1424 27.5159 42.1449ZM18.9169 49.1219L20.8325 48.2887C21.1276 48.1604 22.1279 47.6779 22.2954 47.8417C22.7602 48.2962 23.5029 49.5205 23.8527 50.047C23.9916 50.2556 24.1813 50.5237 24.3031 50.7351L26.7074 42.8169C25.2867 42.4998 25.1112 41.4274 24.2328 41.2031C23.3007 40.9651 22.7505 41.5457 21.3455 40.9895C20.7031 43.4176 19.8868 45.83 19.1852 48.2442C19.1005 48.5356 19.0091 48.8327 18.9169 49.1219ZM28.0668 42.8237C28.1814 43.2879 28.3226 43.7416 28.4547 44.2007C29.0842 46.3877 29.7984 48.5521 30.4321 50.7373C30.6036 50.4817 30.8294 50.123 31.0069 49.8821C31.2366 49.537 32.218 47.8976 32.5174 47.8378C32.9186 47.7582 35.2786 48.9015 35.8434 49.1334C35.5497 48.2887 35.2861 47.3557 35.0249 46.492L33.9114 42.8001C33.8353 42.542 33.5173 41.4507 33.4291 41.1174C33.4084 41.1056 33.3876 41.0937 33.3669 41.0819C32.0808 41.6296 31.2481 40.9622 30.5089 41.255C29.5726 41.626 29.559 42.4363 28.0668 42.8237Z" fill="#B3262E"/>
<path d="M26.9668 24.9896C30.7947 24.7498 34.0939 27.6634 34.3429 31.5033C34.5916 35.3428 31.6961 38.6602 27.8692 38.9197C24.0284 39.1802 20.7071 36.2625 20.4574 32.4086C20.2076 28.5547 23.1246 25.2302 26.9668 24.9896ZM28.0478 38.1337C31.4506 37.7753 33.9178 34.7153 33.5563 31.3022C33.1947 27.8888 30.1417 25.4172 26.7396 25.7842C23.3439 26.1505 20.8853 29.207 21.2462 32.6143C21.6073 36.0216 24.6511 38.4917 28.0478 38.1337Z" fill="#B3262E"/>
<path d="M2.83001 0.0237192C2.99602 0.00185671 3.45212 0.0110677 3.64432 0.0106018L17.9358 0.00924009C19.2652 0.00848745 20.6785 -0.0348436 21.9928 0.0728562C22.7416 0.134179 23.7959 1.33232 24.3403 1.86637L26.7585 4.23139C29.0585 6.48409 31.3835 8.71013 33.6695 10.9793C34.6005 11.9035 34.5266 12.3819 34.5255 13.6461C34.5248 14.371 34.5248 15.1239 34.524 15.8505L34.5223 22.6208C34.2836 22.4375 34.0035 22.2709 33.7467 22.1102C33.7088 19.8657 33.7381 17.5229 33.7417 15.2697L33.7445 13.5522C33.7449 13.1904 33.7603 12.6644 33.6963 12.3202C31.0298 12.2556 28.3304 12.3504 25.6607 12.316C24.5704 12.3442 23.6719 12.1915 22.8759 11.3842C22.0032 10.5217 21.9792 9.54668 21.9932 8.39832C22.0232 5.89255 21.9642 3.37765 21.9985 0.872129C21.6999 0.77382 21.538 0.770128 21.224 0.767655L4.76533 0.764429C3.39074 0.764035 1.94553 0.507778 1.12585 1.87268C0.722699 2.544 0.796187 3.22862 0.788077 3.98119C0.782147 4.5322 0.790576 5.08217 0.790469 5.63199L0.787397 44.5563C0.781431 45.5763 0.677471 46.42 1.43305 47.2088C2.24619 48.0575 3.24995 47.8966 4.31259 47.8937L7.18141 47.8919L16.9943 47.8959C16.945 48.1263 16.8521 48.4152 16.7845 48.6467L7.01857 48.6546L4.32388 48.6596C3.79833 48.6607 3.08119 48.6822 2.57818 48.6091C2.07878 48.5327 1.607 48.3302 1.20731 48.0202C-0.196466 46.9303 0.0126666 45.5078 0.0130595 43.9276L0.0129167 5.7631C0.0126666 4.9158 -0.0255948 3.65813 0.0307792 2.85029C0.079508 2.22761 0.310934 1.6333 0.695906 1.1424C1.25457 0.443301 1.95846 0.121814 2.83001 0.0237192ZM33.1694 11.561C29.9866 8.44143 26.8089 5.31785 23.6122 2.21284C23.3632 1.97106 23.0442 1.62273 22.7791 1.42425L22.7831 7.00983C22.7827 7.59091 22.7395 9.28802 22.8306 9.75745C22.9152 10.1766 23.1224 10.561 23.4254 10.8618C24.0767 11.5211 24.6315 11.5391 25.4935 11.5548C28.0393 11.6009 30.6282 11.4865 33.1694 11.561Z" fill="#B3262E"/>
</svg>
