<svg width="40" height="52" viewBox="0 0 40 52" fill="none" xmlns="http://www.w3.org/2000/svg">
<path d="M19.9624 0C20.0533 0.0120242 20.2 0.0369563 20.2727 0.0908602C20.6354 0.35918 21.0075 0.689421 21.3567 0.974436C21.9595 1.4626 22.5811 1.92675 23.22 2.36577C24.2761 3.08183 25.3798 3.72376 26.5237 4.28697C29.506 5.75052 32.9266 6.73243 36.1949 7.2875C36.8523 7.3996 37.5121 7.49772 38.1739 7.58183C38.6193 7.63621 39.0713 7.68459 39.5165 7.74335C39.6475 7.76068 39.8531 7.87764 39.9045 7.98693C39.9569 8.09881 39.9983 8.43751 39.9986 8.56592C40.0014 9.73663 39.9992 10.9136 39.9989 12.0839L39.9932 24.5112C39.9917 25.5816 40.0252 26.6931 39.9497 27.7548C39.2679 37.3534 32.059 44.5632 24.3977 49.4325C23.0316 50.3007 21.6053 51.2336 20.19 51.992C19.8398 52.0756 19.0332 51.482 18.7082 51.2794C17.9004 50.7773 17.098 50.2666 16.301 49.7471C10.4197 45.9161 4.25077 40.8981 1.48152 34.2185C0.759567 32.4815 0.293967 30.6472 0.0994572 28.7742C-0.0278438 27.5345 0.00353505 26.2806 0.00315889 25.034L0.00347267 12.477C0.00278303 11.1565 -0.00185649 9.83588 0.00588627 8.51524C0.00795519 8.16013 0.076794 7.80246 0.486282 7.73859C0.833641 7.68443 1.18639 7.65347 1.53566 7.61162C2.09458 7.54178 2.6524 7.46329 3.20894 7.37622C5.13194 7.08776 7.03133 6.65773 8.89184 6.08959C10.9684 5.4548 13.2063 4.54992 15.0868 3.44262C16.2536 2.75633 17.3737 1.99268 18.4399 1.15679C18.7593 0.903427 19.6605 0.0761535 19.9624 0ZM0.765867 8.4726L0.770193 25.4453C0.769786 26.3898 0.748156 27.3859 0.824142 28.3251C1.68067 38.9124 11.7511 46.2702 20.0696 51.2156C20.6574 50.8164 21.3476 50.4364 21.9645 50.0542C23.1855 49.311 24.3842 48.5308 25.5588 47.7153C31.8264 43.3876 37.3303 37.7769 38.8905 29.9861C39.3406 27.7384 39.2337 25.468 39.234 23.179L39.2334 10.1848C39.2334 9.70195 39.2124 8.95022 39.2456 8.481C33.6185 7.89184 28.4597 6.65259 23.5946 3.65013C22.9247 3.233 22.2742 2.7852 21.6448 2.30818C21.4529 2.16193 20.0505 1.01133 19.995 0.998327C15.6039 4.79931 10.9105 6.76933 5.23005 7.84251C3.89306 8.09509 2.11894 8.3937 0.765867 8.4726Z" fill="#B3262E"/>
<path d="M19.6897 9.00085C20.3019 8.90778 21.0025 9.10869 21.5106 9.45632C22.0959 9.86129 22.494 10.4868 22.6147 11.1913C22.8893 12.743 21.9166 14.0574 20.3865 14.3156C20.4323 16.5546 20.3925 18.967 20.3878 21.2153C21.9056 21.5107 22.6883 22.3426 23.035 23.8424C23.5946 23.8121 24.3382 23.8334 24.9112 23.8329H28.3995C28.9584 23.8346 29.5224 23.8513 30.0803 23.8342C31.743 23.7835 31.5239 22.3789 31.5232 21.2275L31.5201 18.8177C31.2022 18.7798 30.8878 18.6967 30.5998 18.5545C29.9973 18.2541 29.5386 17.7235 29.3267 17.081C29.0985 16.4086 29.1543 15.6714 29.4816 15.0418C29.7869 14.4307 30.3252 13.9705 30.9737 13.7664C31.6333 13.5649 32.3452 13.6329 32.9552 13.9559C33.568 14.2955 34.0219 14.8656 34.2182 15.5415C34.4106 16.1883 34.321 16.9274 33.9918 17.5109C33.5752 18.2495 33.0301 18.5617 32.2546 18.789C32.2593 18.878 32.2624 18.9671 32.2637 19.0563L32.2668 21.1359C32.2671 21.6805 32.3063 22.5969 32.1696 23.0916C32.0778 23.4159 31.9047 23.7109 31.6668 23.9484C30.8345 24.7847 29.7393 24.5335 28.6728 24.5737C28.4553 24.5819 28.2293 24.5736 28.0108 24.5736L23.0592 24.5711C23.0137 25.2406 22.763 25.7283 22.3811 26.2589C22.6655 26.5631 22.9724 26.8522 23.2629 27.1514C24.9215 28.8578 26.6616 30.5065 28.313 32.218C28.6243 31.9544 28.9449 31.7913 29.3427 31.6963C30.0239 31.5372 30.7402 31.6584 31.3323 32.0327C31.9135 32.4108 32.3201 33.0073 32.4618 33.6893C32.6104 34.3719 32.484 35.0864 32.1107 35.6756C31.7467 36.2346 31.1784 36.6259 30.5289 36.7645C29.8264 36.9159 29.1145 36.7992 28.5111 36.4018C27.945 36.0304 27.55 35.4459 27.4146 34.7794C27.2682 34.0383 27.4265 33.3636 27.8384 32.7415C27.628 32.5493 27.4227 32.3338 27.2196 32.1331C25.4218 30.3537 23.6661 28.5239 21.8592 26.755C21.3599 27.122 21.0197 27.2312 20.4172 27.3414L20.4129 37.2423C20.8649 37.3417 21.1925 37.4461 21.5699 37.7346C22.1197 38.1559 22.478 38.7827 22.5639 39.4729C22.6554 40.1619 22.4686 40.859 22.0451 41.4078C21.5483 42.0466 20.9122 42.2868 20.1411 42.3777C19.5643 42.3915 18.9746 42.2224 18.5072 41.8784C17.9603 41.4719 17.5958 40.8641 17.4936 40.1874C17.3947 39.5 17.5692 38.801 17.9793 38.2421C18.4173 37.6462 18.9726 37.3556 19.69 37.2514L19.6881 30.8691C19.6894 29.7134 19.6693 28.4977 19.6947 27.348C19.0397 27.2536 18.7205 27.1211 18.1755 26.7515C18.0183 26.9513 17.6838 27.2719 17.4971 27.4588L16.2515 28.7054C14.9147 30.0653 13.5642 31.4113 12.2002 32.7431C12.7434 33.7265 12.8434 34.797 12.1719 35.7545C11.7828 36.2993 11.1983 36.6704 10.5423 36.7888C9.84622 36.9081 9.10761 36.7525 8.53154 36.3368C7.98281 35.9442 7.61464 35.3452 7.51032 34.6758C7.39674 33.9749 7.56887 33.2579 7.98773 32.6866C8.38352 32.1305 8.98464 31.7585 9.65587 31.6534C10.4516 31.5328 11.0854 31.76 11.7128 32.2341C12.2419 31.6385 13.0334 30.8997 13.612 30.3178L17.6632 26.2658C17.2695 25.7289 17.0348 25.254 16.9942 24.5749C14.6495 24.5294 12.2411 24.6149 9.89095 24.5689C9.22391 24.5558 8.67571 24.3905 8.21049 23.8829C7.99015 23.6471 7.83254 23.359 7.75229 23.0455C7.63069 22.5565 7.66608 21.5673 7.66724 21.029C7.66881 20.3002 7.65561 19.4917 7.681 18.7665C7.34941 18.6958 7.03506 18.5595 6.75626 18.3654C6.19129 17.9671 5.81111 17.355 5.70274 16.6692C5.59065 15.973 5.76002 15.2606 6.17301 14.691C6.56705 14.1413 7.16606 13.7765 7.8325 13.6803C8.49277 13.5809 9.19902 13.7367 9.73688 14.1407C10.2991 14.5659 10.6701 15.1989 10.768 15.9C10.8617 16.6004 10.67 17.3092 10.2365 17.8652C9.76399 18.4755 9.15034 18.7316 8.40895 18.8198C8.43437 20.0221 8.38851 21.2347 8.41268 22.4384C8.4202 22.8131 8.49117 23.1291 8.75794 23.4082C9.22604 23.8979 9.73004 23.8376 10.3422 23.8358L11.8142 23.8334L17.0138 23.8352C17.0815 23.3004 17.2921 22.7941 17.6233 22.3705C18.1222 21.7259 18.8583 21.3113 19.6649 21.2206C19.7063 18.9659 19.669 16.5909 19.6687 14.3282C19.186 14.2445 18.7656 14.095 18.3715 13.7939C17.8122 13.3646 17.4475 12.7272 17.3592 12.0248C17.2679 11.3148 17.4586 10.5973 17.8898 10.028C18.337 9.44098 18.9648 9.09345 19.6897 9.00085ZM20.3066 26.6139C21.584 26.4517 22.489 25.2772 22.3272 23.9911C22.1655 22.7049 20.9981 21.7946 19.7207 21.9585C18.4447 22.1222 17.5416 23.2959 17.7033 24.5808C17.865 25.8656 19.0302 26.7755 20.3066 26.6139ZM19.8718 37.9508C18.8592 38.0363 18.1075 38.9326 18.1931 39.952C18.2787 40.9714 19.1692 41.7275 20.1818 41.6407C21.1934 41.5539 21.9435 40.6583 21.8583 39.6399C21.7727 38.6214 20.8834 37.8653 19.8718 37.9508ZM19.8354 9.72508C18.7704 9.81459 17.9785 10.7555 18.0655 11.8279C18.1526 12.9004 19.0858 13.6993 20.1511 13.6135C21.2191 13.5274 22.015 12.5851 21.9279 11.5101C21.8404 10.435 20.9031 9.63536 19.8354 9.72508ZM31.4565 14.4079C30.4537 14.5699 29.77 15.5183 29.928 16.5284C30.0863 17.5385 31.0261 18.2294 32.0298 18.0731C33.0376 17.9163 33.7273 16.9652 33.5686 15.951C33.41 14.9368 32.4633 14.2452 31.4565 14.4079ZM7.92821 14.4086C6.93055 14.5731 6.25066 15.516 6.40445 16.5219C6.55824 17.5279 7.48828 18.2213 8.48888 18.0761C9.50309 17.9289 10.2033 16.9771 10.0474 15.9574C9.89154 14.9378 8.93947 14.242 7.92821 14.4086ZM29.5844 32.3975C28.5763 32.5973 27.9202 33.5829 28.1199 34.5979C28.3199 35.6128 29.2998 36.2721 30.3076 36.0698C31.3135 35.8675 31.9671 34.8832 31.7674 33.8701C31.5681 32.8571 30.5913 32.1978 29.5844 32.3975ZM9.94139 32.3638C8.91464 32.4282 8.13507 33.3197 8.20171 34.3533C8.26835 35.3869 9.15589 36.1696 10.1823 36.0998C11.2051 36.0304 11.979 35.1407 11.9127 34.1109C11.8462 33.0808 10.9645 32.2994 9.94139 32.3638Z" fill="#B3262E"/>
</svg>
