<svg width="51" height="52" viewBox="0 0 51 52" fill="none" xmlns="http://www.w3.org/2000/svg">
<path d="M38.9559 0.0327883C40.2215 -0.0749411 41.7179 0.0879624 42.9336 0.445497C43.3038 0.554438 43.4525 0.89478 43.1641 1.21519C42.6739 1.76029 42.1426 2.27068 41.6241 2.79128L38.3918 6.03851C38.1489 6.28082 37.1609 7.21287 37.0624 7.45924C36.7899 8.1407 37.2403 9.78771 37.3291 10.5266C37.7004 13.6237 37.8437 13.407 40.7014 13.8872C43.9512 14.4332 43.0839 14.8116 45.4114 12.4696L48.4381 9.42298C48.8169 9.04055 49.7009 8.0393 50.1389 7.9093C50.9354 7.99327 51.0152 11.2313 50.998 11.9032C50.9361 14.8793 49.7068 17.7107 47.5766 19.782C45.0529 22.1984 41.3551 23.3375 37.9305 22.5651C37.4739 22.4676 36.438 22.0262 36.0113 22.3771C35.3807 22.8957 34.6862 23.6594 34.107 24.2495L29.7073 28.7325C30.1168 29.1416 30.573 29.5663 30.9534 29.9962C30.9728 29.9762 30.9927 29.9563 31.0129 29.9372C31.2103 29.7492 31.3882 29.6421 31.6268 29.5105C33.291 28.5902 35.5823 29.2506 35.9907 31.2512C36.0452 31.5189 36.0285 31.7678 36.0195 32.0441L46.798 42.8838C48.0441 44.1346 48.8815 44.9024 49.0275 46.8015C49.1287 48.0878 48.7149 49.362 47.8771 50.3413C47.0036 51.3275 45.7734 51.9226 44.4604 51.9937C43.4023 52.0465 42.354 51.7651 41.4637 51.1888C40.6999 50.6964 39.1704 49.026 38.4378 48.2937L31.9149 41.7065L30.0985 39.8801C29.7828 39.5621 29.3884 39.1405 29.0595 38.8505L29.0287 38.8239C26.9655 38.8142 25.9557 36.8307 26.5346 35.0028C26.7425 34.3471 26.9826 34.0185 27.442 33.5199C27.0527 33.1636 26.5945 32.6849 26.2243 32.3016C25.348 33.2945 24.1584 34.4495 23.2167 35.4358L17.8931 41.0348C16.1838 42.8193 14.4853 44.6144 12.7976 46.4193C11.9656 47.304 11.1278 48.1863 10.2964 49.0709C8.30797 51.1868 4.9382 51.1864 2.89846 49.1209C1.90991 48.1351 1.35841 46.7913 1.36834 45.3928C1.38422 43.0526 2.71573 42.0441 4.20346 40.5425L8.28995 36.447L19.7805 24.8348C18.7505 23.8549 17.6762 22.7262 16.663 21.7118L10.4035 15.4325L8.34094 13.3532C8.14653 13.1583 7.33554 12.3266 7.16024 12.244C6.46521 11.9392 5.56047 11.9021 4.86723 11.6125C4.38701 11.412 3.87806 10.4521 3.58248 9.9907L2.08754 7.64523C1.72251 7.06884 0.161748 4.6818 0 4.21247C0.029975 3.74244 1.74322 2.34047 2.10385 1.88826C2.37386 1.64048 2.64021 1.76724 2.8753 1.92413C4.96782 3.31191 7.03333 4.746 9.13676 6.11756C10.0884 6.73811 10.1121 8.19341 10.3131 9.27285C10.5584 9.55435 11.1649 10.1097 11.4528 10.3967L19.7343 18.7143C20.7523 19.7273 21.7627 20.7479 22.7655 21.7761C23.0306 21.422 24.2117 20.2287 24.5625 19.8679L27.2649 17.0597C27.6908 16.6154 28.1392 16.1566 28.5631 15.7136C29.4402 14.7979 28.9485 14.1766 28.7399 13.1537C28.6258 12.5836 28.5546 12.0057 28.5266 11.4249C28.3977 8.54942 29.4161 5.74092 31.3555 3.62076C33.2462 1.52005 36.1464 0.176349 38.9559 0.0327883ZM49.9913 8.8662L46.1522 12.7484C45.4881 13.4188 44.1602 15.0804 43.1901 14.9876C41.9117 14.8652 40.5481 14.55 39.2771 14.3216C38.6075 14.2055 37.9979 14.1279 37.4965 13.6176C37.2847 13.3978 37.1243 13.1331 37.0278 12.8431C36.8121 12.1845 36.2387 8.56255 36.2523 7.91286C36.2601 7.54891 36.3255 7.297 36.5287 6.99397C36.9927 6.30196 38.0991 5.32126 38.7301 4.68668C39.917 3.49329 41.0763 2.2624 42.2991 1.10571L42.3902 1.0199C41.2947 0.756689 40.1658 0.659901 39.0411 0.732814C36.2208 0.904548 33.5841 2.19546 31.7128 4.32086C29.942 6.35686 29.0568 9.01953 29.2545 11.7149C29.2927 12.2221 29.3682 12.7259 29.4811 13.2218C29.5617 13.5737 29.7174 14.0266 29.7688 14.3589C29.8548 14.9151 29.5885 15.6751 29.2016 16.0929C28.5266 16.8212 27.8068 17.545 27.1158 18.2642C25.7591 19.6911 24.3939 21.11 23.0205 22.5205C18.6071 27.0863 14.154 31.6127 9.66155 36.1L5.09189 40.6835C4.51259 41.2669 3.93318 41.8651 3.34828 42.4407C2.41548 43.3594 2.0056 44.4742 2.09712 45.7922C2.18833 46.9769 2.74041 48.078 3.63398 48.8576C4.5423 49.6434 5.72744 50.0294 6.92243 49.929C8.22758 49.8278 9.11691 49.2812 9.99073 48.3324C10.4963 47.7838 11.0221 47.2329 11.5333 46.6878C12.6464 45.4964 13.7663 44.3116 14.893 43.1331C15.4858 42.5064 16.208 41.6983 16.8142 41.1075C21.1113 36.5572 25.4508 32.048 29.8322 27.5798C31.0729 26.295 32.3236 25.0201 33.5838 23.755C34.1844 23.1445 34.7905 22.5049 35.4223 21.9238C35.7793 21.5957 36.4501 21.4744 36.918 21.5619C37.6214 21.7257 38.1995 21.9253 38.9349 22.0113C42.0406 22.3639 45.1342 21.2561 47.3162 19.0101C50.0116 16.2739 50.7372 12.5398 49.9913 8.8662ZM26.7191 31.8006C27.1228 32.2097 27.5362 32.6411 27.9473 33.0405C28.6737 32.2355 29.659 31.2559 30.4481 30.4885C30.0463 30.0845 29.6018 29.6527 29.2222 29.233C28.3954 30.0962 27.5607 30.9519 26.7191 31.8006ZM2.47562 2.50404C1.96998 3.03303 1.3015 3.7295 0.761053 4.22122C1.693 5.71056 2.63344 7.19443 3.58244 8.67286C3.92224 9.20795 4.68314 10.4809 5.03599 10.9237L5.09321 10.9453C5.85103 11.2277 6.77317 11.3244 7.50795 11.6256C7.80377 11.7469 8.4311 12.4354 8.69356 12.6998L10.3532 14.3726L17.8495 21.8984L19.6625 23.7142C19.7938 23.8457 20.1558 24.2579 20.3097 24.2878C20.3449 24.2502 20.3848 24.21 20.4174 24.1708C20.9989 23.5674 21.6633 22.8477 22.2657 22.2783L11.1095 11.0717C10.7171 10.6785 10.2301 10.2004 9.85328 9.79849C9.33413 9.24476 9.48139 7.39613 8.98606 6.90945C8.82984 6.75593 7.93099 6.16355 7.67768 5.99291L4.80946 4.06922L3.13223 2.93886C3.0374 2.87494 2.53993 2.5319 2.47562 2.50404ZM32.8908 29.8379C32.5132 29.9125 32.1516 30.0028 31.8265 30.2189C31.2278 30.6159 27.8772 34.0119 27.4646 34.6394C27.1314 35.1462 27.0142 35.9133 27.136 36.5072C27.2466 37.0464 27.5382 37.5689 28.01 37.8658C28.4374 38.1351 28.8485 38.1538 29.3363 38.1562C30.2503 38.9701 31.4516 40.2611 32.3575 41.1692L38.4459 47.2942L40.304 49.1768C40.6652 49.5433 41.1701 50.0795 41.5645 50.3932C41.9643 50.7086 42.4186 50.9469 42.9048 51.0962C46.3251 52.2454 49.523 48.6016 47.9141 45.3088C47.4575 44.3749 45.7123 42.8143 44.9162 42.0062L36.3239 33.3597C36.0183 33.053 35.5574 32.6161 35.2795 32.2996C35.3149 31.9456 35.3577 31.6338 35.2631 31.2845C34.956 30.1474 33.9481 29.7461 32.8908 29.8379Z" fill="#B3262E"/>
<path d="M6.4765 42.6279C7.84231 42.4227 9.11453 43.3699 9.31513 44.7414C9.51569 46.113 8.56836 47.3876 7.20139 47.5849C5.8399 47.7815 4.57663 46.8355 4.37685 45.4694C4.17707 44.1033 5.11614 42.8326 6.4765 42.6279ZM7.15288 46.8761C8.13404 46.7022 8.78597 45.7593 8.60499 44.7758C8.42401 43.7923 7.47938 43.1452 6.50106 43.3347C5.53346 43.5219 4.89744 44.4574 5.07644 45.4299C5.25547 46.4025 6.18251 47.0484 7.15288 46.8761Z" fill="#B3262E"/>
<path d="M30.8879 36.4251C30.9167 36.4228 30.9459 36.4212 30.9747 36.42C31.19 36.4118 31.2445 36.4533 31.3987 36.6033C32.257 37.4387 33.1014 38.3023 33.945 39.1529L38.029 43.2503L41.554 46.8058C41.865 47.1246 42.8444 47.9299 42.8581 48.3234C42.8106 48.4735 42.7814 48.4864 42.6634 48.6005C42.5439 48.6165 42.4135 48.6411 42.3212 48.5626C42.0262 48.3101 41.726 47.9967 41.4531 47.7224L39.6336 45.8906L32.8651 39.0943C32.6183 38.8466 30.6843 36.996 30.6769 36.7846C30.6715 36.6326 30.7883 36.5209 30.8879 36.4251Z" fill="#B3262E"/>
<path d="M33.7994 33.5801C33.9536 33.6242 34.017 33.6528 34.133 33.7676C34.6948 34.3237 35.2522 34.8938 35.8093 35.4529L39.2685 38.922L43.7998 43.4852C44.2809 43.974 44.7652 44.4503 45.2565 44.9286C45.5698 45.2338 45.6738 45.5225 45.2366 45.7605C45.0155 45.6773 44.9267 45.5894 44.7605 45.4276C43.8531 44.5433 42.9698 43.6317 42.0772 42.7326L37.0492 37.6794C36.5563 37.1847 33.641 34.3495 33.5032 34.0775C33.4689 34.0099 33.4498 33.9177 33.4779 33.8454C33.5347 33.6989 33.6635 33.6371 33.7994 33.5801Z" fill="#B3262E"/>
</svg>
