<svg width="185" height="93" viewBox="0 0 185 93" fill="none" xmlns="http://www.w3.org/2000/svg">
<path d="M52.7657 36.4702C53.4089 35.8156 54.1433 35.3426 54.7155 34.7294C54.2026 36.7549 53.5121 38.639 52.8463 40.6224C51.8269 43.66 50.8685 46.8082 49.7712 49.8208C47.2052 56.8654 44.111 63.7881 40.1116 70.2741C39.6292 71.053 39.1773 71.8774 38.6882 72.6249C37.8799 73.8683 36.6344 75.0547 35.7861 76.2375C33.8436 78.9454 31.7586 81.1016 28.8821 83.0314C27.2361 84.1358 25.3984 85.5085 23.5046 86.2625C19.5491 87.8375 15.344 88.1571 11.1171 87.435C10.0278 87.2539 8.0433 86.5844 7.05093 86.1616C6.07776 85.7471 4.91973 84.9102 3.90391 84.6563C2.91738 84.4098 2.41788 83.5478 1.41329 83.0162C0.73331 84.2431 0.148571 86.8711 0.751881 88.1597C3.8067 94.6852 14.2749 92.3848 19.914 90.6287C24.2048 89.2925 27.0101 87.3666 30.7183 85.2554C43.8237 77.7945 51.1103 65.0533 56.7026 52.503C58.7348 47.9206 60.5965 43.278 62.2846 38.5831C62.8949 36.9102 63.4119 35.1817 64.0092 33.5022C64.2282 32.8865 64.4452 31.9795 64.7122 31.4294C64.5124 31.3324 57.6441 32.3014 56.5561 32.3814C57.2403 31.5032 58.3628 29.9877 59.1031 29.2064C59.2107 28.9268 60.293 27.4239 60.5683 26.9722C61.7634 25.0113 62.4171 23.7229 63.1207 21.6101C63.1641 21.0128 63.5602 19.9439 63.6872 19.1754C63.9103 17.5755 63.689 16.2576 63.0412 14.7295C62.7609 14.0683 61.5388 12.668 60.7696 12.4473C59.8054 12.6165 59.684 15.0823 59.4067 15.9231C57.9615 20.3051 55.9438 24.519 53.4344 28.4906C53.2435 28.7927 52.9391 29.0954 52.7686 29.3717C52.199 30.5269 51.4448 31.6327 50.4921 32.5617C50.1966 32.9275 49.9615 33.3348 49.6627 33.702C45.8357 38.4067 36.357 48.973 29.8205 49.8355C28.1584 50.0549 27.1634 49.4562 25.8876 48.608C25.6055 48.1056 25.2642 47.1675 25.1553 46.6161C23.7167 39.3319 28.4764 31.3495 32.7843 25.5433C32.9504 25.357 33.2815 24.803 33.4403 24.5752C34.6949 22.7737 36.0157 21.3015 37.9002 20.0099C38.3169 19.3111 39.4741 18.444 40.1514 17.8627C44.8973 13.821 51.019 10.7049 57.3066 9.1356C60.288 8.39156 63.7369 7.57073 66.8516 7.3775C70.1561 7.3078 73.4216 6.95939 76.7176 6.87142C78.0544 6.83567 79.7927 7.27365 81.1176 7.23161C82.0384 7.20245 84.9637 7.75357 85.4283 7.15801C85.4659 7.10878 85.5001 7.05756 85.5307 7.00453C86.1319 5.98408 86.7212 3.01561 86.2885 1.80441C86.2344 1.65511 86.1753 1.50732 86.1114 1.36125C83.6379 0.379793 83.0706 0.505694 80.4043 0.505055C73.6012 0.544309 66.8611 1.6838 60.5034 3.86951C44.6962 9.34431 31.3357 19.3809 22.4991 32.4189C22.0795 33.0507 21.2811 33.8495 20.9719 34.3545C20.4104 35.336 19.8528 36.3294 19.3584 37.342C17.4846 41.1798 16.3957 44.8507 16.5228 49.0823C16.5938 51.4456 16.999 53.9284 19.7097 55.1133C20.3655 55.3999 21.7871 55.6679 22.5536 55.7627C24.3888 55.6024 26.5015 55.1597 28.1885 54.5009C33.0975 52.5839 37.4083 49.5561 41.4658 46.457C42.5976 45.7286 43.4845 44.9804 44.3911 44.0279C44.6455 43.7607 45.9228 43.3048 46.0884 43.0784C46.8397 42.0506 47.9661 41.3105 48.9014 40.3944C50.2342 39.0888 51.4829 37.8105 52.7657 36.4702Z" fill="#B3262E"/>
<path d="M70.8577 19.3794C69.7864 19.3096 64.0353 19.3649 63.6872 19.1754C63.5602 19.9439 63.1641 21.0128 63.1207 21.6101L63.4011 21.7285C64.1384 23.004 65.2379 24.1117 65.9263 25.3965C65.9588 25.4572 65.9936 25.6035 66.0041 25.6536C65.1759 26.5091 61.3791 29.1277 59.9086 29.247C59.7599 29.2591 59.2751 29.2312 59.1031 29.2064C58.3628 29.9877 57.2403 31.5032 56.5561 32.3814C57.6441 32.3014 64.5124 31.3324 64.7122 31.4294C64.833 31.3764 65.4964 30.9003 65.623 30.804C66.6257 30.0411 67.4352 29.5514 68.6245 29.0711C69.3839 29.8973 70.6876 31.3993 71.2797 32.294C73.3922 32.5104 77.8514 32.3508 80.1672 32.3432C78.9432 30.424 77.328 28.5946 76.0303 26.7012C75.5801 26.0444 75.1891 25.4258 74.6927 24.7923C77.2946 23.0771 80.381 21.0962 82.8568 19.3316C77.5467 19.5437 77.0819 18.1495 72.5884 21.4132C71.5348 20.6253 71.4319 20.5002 70.8577 19.3794Z" fill="#1F1F21"/>
<path d="M44.1694 19.256C42.0546 19.2319 39.5431 19.1494 37.9002 20.0099C36.0157 21.3015 34.6949 22.7737 33.4403 24.5752C33.2815 24.803 32.9504 25.357 32.7843 25.5433C32.6103 26.6091 32.6395 26.6635 32.9265 27.7197C34.4767 33.4239 42.1894 32.2759 47.0971 32.3584C47.9243 32.3724 49.8898 32.1615 50.4921 32.5617C51.4448 31.6327 52.199 30.5269 52.7686 29.3717C52.1549 29.3837 51.4137 29.3528 50.7916 29.3345C47.8502 29.2483 44.8306 29.6113 41.9824 28.8598C41.7288 28.5729 41.4794 28.2829 41.2345 27.9898C41.2593 27.8963 41.2852 27.8031 41.3121 27.71C41.539 26.934 42.6879 23.148 43.2813 22.6337C43.6231 22.3374 46.9798 22.3268 47.5727 22.4765L47.6262 22.597C47.2793 22.9699 45.855 25.7697 45.6518 26.3527C47.7339 26.3537 51.5914 26.6887 53.4556 26.0794C54.3861 25.7753 54.8427 23.9587 55.1616 23.0503C54.9796 22.677 54.6116 21.6334 54.3942 21.3744C52.2374 18.8059 47.235 19.291 44.1694 19.256Z" fill="#1F1F21"/>
<path d="M173.973 11.205C175.133 11.1315 176.776 11.1675 177.923 11.2283C177.691 12.3065 177.233 13.587 176.872 14.6619C176.402 16.067 175.899 17.9317 175.287 19.2689C177.035 19.3073 178.859 19.3706 180.599 19.3355C179.395 22.0364 177.146 22.6176 174.2 22.3932C174.084 22.9481 173.554 24.2654 173.335 24.8692C172.782 26.348 172.271 27.8393 171.802 29.3417C173.298 29.2726 182.802 29.2441 183.5 29.5429L183.486 29.7314C181.871 31.7904 181.644 32.3822 178.519 32.3655C174.312 32.3431 170.071 32.4645 165.869 32.3207C165.261 32.2998 164.604 32.1233 164.016 31.9652L163.93 31.9422L163.78 30.4537C163.319 31.0187 162.08 32.0335 161.381 32.1017C158.541 32.3787 150.32 32.8716 148.062 31.7861C148.03 31.7091 147.999 31.6314 147.971 31.5532C147.241 29.566 148.195 27.4749 148.796 25.5667C149.12 24.5324 149.444 23.3392 149.973 22.3926C148.61 22.3495 147.017 22.4044 145.628 22.4045C145.362 23.1149 144.84 24.1031 144.507 24.8256C143.808 26.3463 143.403 27.6759 142.35 29.0229C141.027 29.5142 140.18 29.4558 138.828 29.3627L138.707 29.3544C137.778 30.5822 136.418 32.2519 134.578 32.2843L134.118 32.2924C128.317 32.394 122.419 32.4974 116.633 32.2164C115.614 32.167 113.585 31.5703 112.854 30.9424C109.809 28.327 111.14 32.339 107.224 32.3337C102.423 32.3273 97.4946 32.5534 92.7097 32.24C92.37 32.2177 91.2077 30.5063 91.6286 30.1191C93.1895 28.9095 95.7209 28.7125 96.4618 26.672C96.8389 25.6329 96.6649 24.4636 96.1319 23.4957C94.7972 22.7042 93.9981 22.5419 92.4592 22.3776C91.9973 23.9524 91.3036 25.6944 90.7609 27.2696L87.6678 36.4938C87.2733 37.6856 86.6195 38.6878 86.3759 39.9373C84.0915 40.0493 80.9286 39.9538 78.591 39.9154C79.1133 38.5997 79.4176 37.4058 79.8691 36.0805L83.1984 26.3781C83.8203 24.5472 84.3105 22.8242 85.0268 21.018C85.3306 20.0279 86.9307 15.0286 87.3525 14.4543C88.2301 13.8978 93.6046 14.1617 94.9655 14.1786C94.7324 15.4908 93.8722 18.1109 93.2039 19.2938C96.9161 19.2988 102.683 18.6569 104.42 22.4101C105.474 24.6872 102.602 28.2893 100.289 29.0258L100.285 29.1572C100.555 29.2627 101.225 29.3298 101.51 29.3147C102.579 29.2582 110.502 29.5065 110.819 29.2075C110.648 28.9613 110.591 28.8425 110.538 28.556C110.149 26.4696 110.284 24.4292 111.668 22.667C113.126 20.9567 115.746 19.6837 118.091 19.4121C119.946 19.1972 121.809 19.3136 123.656 19.2855C125.045 19.2987 126.401 19.2572 127.777 19.4725C132.21 20.1664 133.773 22.954 130.774 26.2987C129.765 26.4218 123.949 26.4955 123.116 26.2074C123.093 25.605 125.022 22.7916 124.935 22.47C124.472 22.2994 120.881 22.2402 120.581 22.6818C119.803 23.7335 118.874 26.7439 118.692 27.911C118.391 29.8366 126.335 29.3355 127.605 29.3348L138.221 29.3343C138.964 27.0763 140.114 24.7998 140.893 22.5247C138.698 20.9865 138.083 21.373 138.18 18.3723C138.305 14.4938 143.651 13.9847 146.942 14.128C147.416 14.1487 148.207 14.1535 148.536 14.4703C147.934 15.1543 148.138 15.2356 147.874 16.0146C147.498 17.1095 147.101 18.1978 146.681 19.2792C150.418 19.3314 154.567 19.3655 158.305 19.3334C157.713 20.4983 157.478 21.7653 157.049 22.994C156.316 25.0928 155.513 27.1378 154.937 29.2806C157.812 29.3737 160.914 29.3381 163.796 29.3172C163.987 28.7083 164.337 27.9761 164.566 27.353C165.171 25.7287 165.713 24.086 166.192 22.4277C165.215 22.3898 164.239 22.369 163.261 22.3653C163.44 21.6405 163.801 19.6095 164.452 19.1946C166.077 18.1571 168.186 17.7856 169.744 16.5957C170.908 15.7048 171.695 14.4573 172.475 13.2979C172.814 12.7928 173.45 11.426 173.973 11.205Z" fill="#1F1F21"/>
<path d="M37.9002 20.0099C38.3169 19.3111 39.4741 18.444 40.1514 17.8627C44.8973 13.821 51.019 10.7049 57.3066 9.1356C60.288 8.39156 63.7369 7.57073 66.8516 7.3775C70.1561 7.3078 73.4216 6.9594 76.7176 6.87142C78.0544 6.83567 79.7927 7.27365 81.1176 7.23161C82.0384 7.20245 84.9637 7.75357 85.4283 7.15801C85.4659 7.10878 85.5001 7.05756 85.5307 7.00453C86.1319 5.98408 86.7212 3.01561 86.2885 1.80441C86.2344 1.65511 86.1753 1.50732 86.1114 1.36125C83.6379 0.379793 83.0706 0.505694 80.4043 0.505055C73.6012 0.544309 66.8611 1.6838 60.5034 3.86951C44.6962 9.34431 31.3357 19.3809 22.4991 32.4189C22.0795 33.0507 21.2811 33.8495 20.9719 34.3545C20.4104 35.336 19.8528 36.3294 19.3584 37.342C17.4846 41.1798 16.3957 44.8507 16.5228 49.0823C16.5938 51.4456 16.999 53.9284 19.7097 55.1133C20.3655 55.3999 21.7871 55.6679 22.5536 55.7627C24.3888 55.6024 26.5015 55.1597 28.1885 54.5009C33.0975 52.5839 37.4083 49.5561 41.4658 46.457C42.5976 45.7286 43.4845 44.9804 44.3911 44.0279C44.6455 43.7607 45.9228 43.3048 46.0884 43.0784C46.8397 42.0506 47.9661 41.3105 48.9014 40.3944C50.2342 39.0888 51.4829 37.8105 52.7657 36.4702C53.4089 35.8156 54.1433 35.3426 54.7155 34.7294C54.2026 36.7549 53.5121 38.639 52.8463 40.6224C51.8269 43.66 50.8685 46.8082 49.7712 49.8208C47.2052 56.8654 44.111 63.7881 40.1116 70.2741C39.6292 71.053 39.1773 71.8774 38.6882 72.6249C37.8799 73.8683 36.6344 75.0547 35.7861 76.2375C33.8436 78.9454 31.7586 81.1016 28.8821 83.0314C27.2361 84.1358 25.3984 85.5085 23.5046 86.2625C19.5491 87.8375 15.344 88.1571 11.1171 87.435C10.0278 87.2539 8.0433 86.5844 7.05093 86.1616C6.07776 85.7471 4.91973 84.9102 3.90391 84.6563C2.91738 84.4097 2.41788 83.5478 1.41329 83.0162C0.73331 84.2431 0.148571 86.8711 0.751881 88.1597C3.8067 94.6852 14.2749 92.3848 19.914 90.6287C24.2048 89.2925 27.0101 87.3666 30.7183 85.2554C43.8237 77.7946 51.1103 65.0533 56.7026 52.503C58.7348 47.9206 60.5965 43.278 62.2846 38.5831C62.8949 36.9102 63.4119 35.1817 64.0092 33.5022C64.2282 32.8865 64.4452 31.9795 64.7122 31.4294M37.9002 20.0099C39.5431 19.1494 42.0547 19.2319 44.1694 19.256C47.235 19.291 52.2374 18.8059 54.3942 21.3744C54.6116 21.6334 54.9796 22.677 55.1616 23.0503C54.8427 23.9587 54.3861 25.7753 53.4556 26.0794C51.5914 26.6887 47.7339 26.3537 45.6518 26.3527C45.855 25.7697 47.2793 22.9699 47.6262 22.597L47.5727 22.4765C46.9798 22.3268 43.6231 22.3374 43.2813 22.6337C42.6879 23.148 41.539 26.934 41.3121 27.71C41.2852 27.8031 41.2593 27.8963 41.2345 27.9898C41.4794 28.2829 41.7288 28.5729 41.9824 28.8598C44.8306 29.6113 47.8502 29.2483 50.7916 29.3345C51.4137 29.3528 52.1549 29.3837 52.7686 29.3717M50.4921 32.5617C50.1966 32.9275 49.9615 33.3348 49.6627 33.702C45.8357 38.4067 36.357 48.973 29.8205 49.8355C28.1584 50.0549 27.1634 49.4562 25.8876 48.608C25.6055 48.1056 25.2642 47.1675 25.1553 46.6161C23.7167 39.3319 28.4764 31.3495 32.7843 25.5433C32.9504 25.357 33.2815 24.803 33.4403 24.5752C34.6949 22.7737 36.0157 21.3015 37.9002 20.0099M52.7686 29.3717C52.9391 29.0954 53.2435 28.7927 53.4344 28.4906C55.9438 24.519 57.9615 20.3051 59.4067 15.9231C59.684 15.0823 59.8054 12.6165 60.7696 12.4473C61.5388 12.668 62.7609 14.0683 63.0412 14.7295C63.689 16.2576 63.9103 17.5755 63.6872 19.1754M52.7686 29.3717C52.199 30.5269 51.4448 31.6327 50.4921 32.5617M63.6872 19.1754C64.0353 19.3649 69.7864 19.3096 70.8577 19.3794C71.4319 20.5002 71.5348 20.6253 72.5884 21.4132C77.0819 18.1495 77.5467 19.5437 82.8568 19.3316C80.381 21.0962 77.2946 23.0771 74.6927 24.7923C75.1891 25.4258 75.5801 26.0444 76.0303 26.7012C77.328 28.5946 78.9432 30.424 80.1672 32.3432C77.8514 32.3508 73.3922 32.5104 71.2797 32.294C70.6876 31.3993 69.3838 29.8973 68.6245 29.0711C67.4352 29.5514 66.6257 30.0411 65.623 30.804C65.4964 30.9003 64.833 31.3764 64.7122 31.4294M63.6872 19.1754C63.5602 19.9439 63.1641 21.0128 63.1207 21.6101M64.7122 31.4294C64.5124 31.3324 57.6441 32.3014 56.5561 32.3814C57.2403 31.5032 58.3628 29.9877 59.1031 29.2064M50.4921 32.5617C49.8898 32.1615 47.9243 32.3724 47.0971 32.3584C42.1894 32.2759 34.4767 33.4239 32.9265 27.7197C32.6395 26.6635 32.6103 26.6091 32.7843 25.5433M63.1207 21.6101C63.1939 21.641 63.2874 21.6805 63.4011 21.7285C64.1384 23.004 65.2379 24.1117 65.9263 25.3965C65.9588 25.4572 65.9936 25.6035 66.0041 25.6536C65.1759 26.5091 61.3791 29.1277 59.9086 29.247C59.7599 29.2591 59.2751 29.2312 59.1031 29.2064M59.1031 29.2064C59.2107 28.9268 60.293 27.4239 60.5683 26.9722C61.7634 25.0113 62.4171 23.7229 63.1207 21.6101M63.4011 21.7285L63.1207 21.6101M164.016 31.9652L163.93 31.9422L163.78 30.4537C163.319 31.0187 162.08 32.0335 161.381 32.1017C158.541 32.3787 150.32 32.8716 148.062 31.7861C148.03 31.7091 147.999 31.6314 147.971 31.5532C147.241 29.566 148.195 27.4749 148.796 25.5667C149.12 24.5324 149.444 23.3392 149.973 22.3926C148.61 22.3495 147.017 22.4044 145.628 22.4045C145.362 23.1149 144.84 24.1031 144.507 24.8256C143.808 26.3463 143.403 27.6759 142.35 29.0229C141.027 29.5142 140.18 29.4558 138.828 29.3627C138.788 29.3599 138.748 29.3572 138.707 29.3544C137.778 30.5822 136.418 32.2519 134.578 32.2843L134.118 32.2924M163.93 31.9422C163.959 31.9498 163.987 31.9575 164.016 31.9652M138.707 29.3544L138.828 29.3627M134.578 32.2843C134.425 32.287 134.271 32.2897 134.118 32.2924M137.384 46.5226C137.328 46.6471 137.25 46.8591 137.162 46.951L137.12 47.0307C136.615 48.0079 136.753 48.2731 137.423 49.0525C137.05 49.134 135.289 49.1018 134.844 49.0774C135.247 48.8871 135.758 48.6636 136.143 48.4595C136.548 47.4539 137.523 44.1674 138.543 43.6839C139.342 43.7605 139.668 46.2068 139.678 46.8363L140.342 47.4235C140.383 47.8985 140.661 48.9743 140.641 49.096C140.211 49.1439 139.268 49.1579 138.903 48.9481C139.191 48.6111 139.567 48.8295 139.703 48.4654C139.569 48.0843 139.313 47.2779 139.124 46.9556M137.384 46.5226C137.654 45.6106 138.154 45.2322 138.542 43.9528C138.662 45.0184 138.684 45.8254 139.216 46.7932L139.124 46.9556M139.124 46.9556C138.396 47.1421 137.895 47.0786 137.162 46.951M139.216 46.7932C138.65 46.7664 137.769 46.8056 137.384 46.5226M95.5598 48.1311C95.3719 47.763 94.7035 46.5799 94.5423 46.2062C94.3681 45.8028 94.4632 45.2159 94.1174 44.8626C93.8848 44.8022 93.8443 44.7948 93.6032 44.7807C93.4646 44.2201 93.8356 44.0457 93.6308 43.6451C93.3086 43.4823 92.9583 43.5396 92.5821 43.5584L92.4005 43.7008C92.4385 44.0081 92.6593 44.219 92.6266 44.5028C92.4991 45.6053 92.9889 48.0964 92.2156 48.9152L92.2742 49.0648C92.6479 49.1366 93.3364 49.1559 93.6447 48.9447C93.5174 48.7441 93.4723 48.722 93.2769 48.566C93.1933 47.8912 93.1746 45.5766 93.4782 45.0108C93.8361 45.3572 94.1994 47.4879 94.7176 48.2595C94.9818 48.2543 94.9478 48.2595 94.9478 48.2595C95.5598 48.1311 95.2795 48.1311 95.5598 48.1311ZM95.5598 48.1311C96.0249 47.6515 96.643 44.6444 96.987 44.4549C97.2542 44.7539 97.037 46.1644 96.9901 46.5993C97.0023 46.9664 96.7884 49.0162 96.777 48.9824C97.0663 49.1881 98.1709 49.2456 98.4376 48.9605C97.897 48.5198 97.6467 48.9119 97.5789 47.9817C97.5188 47.1582 97.976 44.1854 97.6188 43.6422C97.2816 43.5217 97.1421 43.5347 96.79 43.5303C96.4283 44.3634 94.9991 47.878 95.5598 48.1311ZM71.611 47.172C72.2619 46.3974 73.2189 45.9339 73.9066 44.9485C74.6813 43.8384 73.7212 43.5054 75.1209 43.5611C75.2705 44.3686 74.9741 47.2678 75.0682 48.2869C75.1255 48.9082 75.5273 48.5985 75.444 49.0433C75.0442 49.1697 74.085 49.1596 73.6667 49.049L73.5904 48.908C73.9739 48.554 74.1569 48.8343 74.4343 48.4573C74.4206 47.8867 74.501 45.8342 74.0535 45.469C73.7916 45.5553 72.3728 47.2822 72.0088 47.6341M72.0088 47.6341C71.223 48.4966 72.0668 48.8053 72.8397 49.0912C72.2399 49.1055 70.8819 49.1784 70.3676 49.0529C70.2431 48.5832 71.0165 49.1008 71.028 48.1601C71.0387 47.2869 70.791 44.1777 71.1769 43.5839C71.5544 43.5195 71.8062 43.4759 72.0186 43.7875C71.7362 44.6103 71.701 46.2433 71.611 47.172L71.71 47.5007L72.0088 47.6341ZM89.9996 43.9509C90.2611 44.0931 90.5052 44.3247 90.7309 44.5175C91.0658 44.2815 91.2009 44.0869 91.0141 43.7341C90.6728 43.5188 90.3798 43.5883 89.9591 43.6243C89.6252 43.7322 88.5674 43.7895 88.2577 43.6104C87.8585 43.5925 87.5613 43.5474 87.2009 43.7006L87.1445 43.8209C87.239 43.9554 87.3548 44.1201 87.4917 44.3147C87.5128 45.6269 87.3166 47.0197 87.5328 48.3148C87.4312 48.6305 87.1618 48.7555 86.8613 48.9492C87.1537 49.2062 90.4317 49.1966 90.8718 49.0608C91.2479 48.619 91.1252 48.0299 90.8282 47.5713L90.6422 47.5198C90.3759 47.831 90.338 48.318 90.2835 48.712L88.1578 48.7453C88.2001 48.2514 88.199 47.4423 88.1948 46.6124M88.2577 43.6104L88.2656 43.8346M88.2656 43.8346C88.8986 43.9534 89.3382 44.0346 89.9996 43.9509M88.1948 46.6124C88.194 46.4437 88.193 46.2742 88.1922 46.1062C88.1878 45.1364 88.1905 44.2204 88.2656 43.8346M84.1952 43.6212C83.3231 43.4707 82.9444 43.7465 81.6415 43.4959C81.6073 43.9878 81.538 44.4354 81.7063 44.9056L81.8478 45.0045C82.1007 44.7572 82.0779 44.2535 82.1234 43.8872L83.4427 44.0709C83.3407 45.2478 83.7384 48.3727 82.7852 48.9011L82.8127 49.0461L82.9267 49.1106C83.4251 49.1179 84.3847 49.1672 84.8281 49.0569L84.8571 48.9258C84.5839 48.7675 84.517 48.7449 84.2082 48.652C84.2199 47.8581 84.3272 44.0971 84.1952 43.6212ZM84.1952 43.6212C84.7408 44.2276 85.4432 44.2129 85.5138 44.9868L85.7108 45.0566C86.058 44.7657 86.1464 43.9583 85.8937 43.5817L85.6995 43.5398C85.3097 43.5984 84.6261 43.5752 84.1952 43.6212ZM112.899 48.6533C113.054 48.3917 113.273 47.9733 113.334 47.6867C113.635 46.2798 111.473 45.997 110.138 45.8531L110.163 46.1062C110.259 46.3487 112.03 46.4736 112.324 46.6722C112.449 47.1489 112.337 47.8469 112.288 48.3537C111.792 48.9141 110.857 48.7307 110.101 48.6936C110.146 47.3685 110.22 45.2037 110.091 43.9144C110.743 43.935 111.698 43.9263 112.288 44.0982C112.428 44.259 112.571 44.4178 112.715 44.5746C113.066 44.4339 113.034 44.2408 112.974 43.9176C112.298 43.3009 111.156 43.786 110.288 43.6329C109.966 43.5761 109.618 43.5448 109.29 43.4916L109.302 43.5383C109.56 44.5852 109.469 47.3064 109.456 48.4621C109.331 48.626 109.201 48.7873 109.069 48.9457C109.672 49.6029 112.115 48.8895 112.899 48.6533ZM112.288 48.3537L112.413 48.5548L112.899 48.6533M122.211 48.8479C122.894 48.2295 122.841 47.7154 122.935 46.8889L122.256 45.8473C122.645 45.5146 122.981 45.0754 123.025 44.578C123.042 44.3917 122.972 44.2075 122.833 44.069C122.247 43.4824 120.761 43.6955 119.853 43.5479C119.326 43.7401 119.195 43.6944 119.193 44.2981C119.779 44.9499 120.916 43.3143 121.856 44.0195C122.093 44.5888 121.755 45.8381 121.22 46.1239C120.758 46.0551 120.53 45.9374 120.207 46.1202L120.169 46.2814C120.548 46.617 121.196 46.4075 121.726 46.3385C121.877 46.6516 122.072 47.0985 122.283 47.3635C122.092 47.9001 121.891 48.2464 122.082 48.773L122.211 48.8479ZM122.211 48.8479C121.989 48.229 120.734 48.9166 120.246 48.6521C119.553 48.2773 119.993 47.6884 119.096 47.5435C119.062 47.9525 118.972 48.2379 119.286 48.5676C119.865 49.1795 121.387 48.9769 122.211 48.8479ZM170.177 47.256C170.789 47.0197 172.407 44.8267 172.732 44.2222C172.631 44.0065 172.582 43.987 172.382 43.8256L172.44 43.6634C172.779 43.5785 173.366 43.5474 173.637 43.7781C173.539 43.9949 173.51 44.0276 173.357 44.2198C173.32 44.8046 173.403 45.1316 173.392 45.6454C173.371 46.5988 173.3 47.5692 173.266 48.5264C173.736 48.7666 174.128 48.8923 174.555 49.1048C174.01 49.1166 172.582 49.2248 172.219 48.9529C172.37 48.6529 172.798 48.6073 172.78 48.4712C172.654 47.4966 172.878 45.7533 172.863 44.8743C172.261 45.5557 171.106 47.4188 170.29 47.5252M170.29 47.5252C170.266 47.5537 170.201 47.6162 170.191 47.6434C169.764 48.7984 170.246 48.6346 170.802 48.9581L170.679 49.0944C170.198 49.1261 169.327 49.2211 168.926 48.98L168.969 48.8751C169.808 48.436 169.256 48.2712 169.386 47.6717C169.549 46.9292 169.216 44.1454 169.425 43.7122C169.718 43.5279 169.586 43.555 169.916 43.5964C170.453 44.1605 169.846 46.2032 170.177 47.256C170.257 47.3951 170.263 47.374 170.29 47.5252ZM133.681 48.5994C133.92 47.859 133.569 45.1408 133.769 44.2143C133.818 43.9805 133.624 44.0104 133.678 43.6048C134.096 43.5654 134.115 43.5062 134.457 43.6348C134.575 43.9501 134.378 44.2831 134.367 44.7001C134.333 45.9433 134.288 47.3174 134.397 48.5554C134.542 48.7158 134.661 48.8472 134.754 48.9496L134.655 49.0738C134.251 49.1291 133.48 49.1804 133.129 49.0038C133.202 48.7807 133.443 48.7124 133.681 48.5994M131.29 44.0412C131.118 43.8848 131.107 43.8051 131.02 43.5934M131.29 44.0412C131.761 43.8605 133.009 43.9495 133.661 43.9124C133.584 44.7424 133.442 47.9113 133.681 48.5994M65.6631 47.4373C65.2344 46.874 65.3313 46.2741 65.343 45.5936C65.829 44.989 66.223 43.7229 67.0104 43.6718C67.5856 43.6346 69.3421 43.4322 69.5235 44.0568C69.3771 44.2666 69.3689 44.3158 69.127 44.3983C67.6702 43.881 67.3431 43.48 66.3365 45.0481C66.2943 45.7077 66.2129 46.5685 66.2174 47.2138C67.1096 48.5221 66.6279 48.7493 68.4785 48.7547C68.876 48.1524 69.1293 47.7521 69.6222 47.2111C69.2293 49.4088 68.3278 49.6368 66.1693 48.5374L65.6631 47.4373ZM65.343 45.5936L65.8107 45.4684C66.4473 45.8031 66.1232 46.7023 65.9911 47.2473L65.6631 47.4373M115.69 49.1138C115.272 49.1234 114.288 49.2389 114.09 48.9028C114.404 48.626 114.595 48.6295 114.651 48.2301C114.804 47.149 114.148 44.5228 114.72 43.662C115.111 43.4975 115.111 43.5746 115.621 43.6453M115.69 49.1138L115.081 48.9863L115.391 48.7297M115.69 49.1138C116.377 49.1712 117.321 49.1316 118.032 49.1187C118.006 48.4816 118.212 48.2034 118.093 47.6475L117.821 47.8464L117.917 47.6877C117.681 47.9477 117.515 48.4056 117.374 48.7326L115.391 48.7297M115.621 43.6453C115.534 43.778 115.509 43.8173 115.397 43.9399L115.398 43.9516M115.621 43.6453L115.731 43.6561C116.568 43.7338 117.795 43.5064 118.327 43.8649C118.25 44.1686 118.328 44.0631 118.019 44.252C117.579 44.2308 117.709 44.2389 117.308 43.9949C116.882 43.9728 115.779 43.9006 115.398 43.9516M115.398 43.9516C115.498 45.5608 115.441 47.1249 115.391 48.7297M78.179 48.9838C77.9284 48.9094 77.6945 48.7233 77.4776 48.5756C77.3702 48.4215 77.2705 48.2631 77.1787 48.101C76.4723 46.8491 76.3128 43.3665 78.9108 43.6573C79.5647 43.7305 80.5748 43.3351 80.7966 43.9266C80.7146 44.2442 80.7807 44.23 80.5353 44.4007C80.0323 44.3957 79.9359 44.1186 79.5931 44.0042C77.1748 43.1969 77.3224 46.7309 77.8376 47.922C77.9995 48.3919 77.9142 48.387 78.2633 48.6831C78.6341 48.744 78.8164 48.7459 79.1895 48.7538M77.4776 48.5756C77.7195 48.3031 77.7337 48.2457 77.8376 47.922M124.677 47.9157C123.606 47.0376 123.984 45.2037 124.796 44.2426C125.086 43.9723 125.122 43.8812 125.305 43.5487C126.137 43.6654 127.663 43.5164 128.146 43.9672C128.929 44.6985 128.508 49.0551 127.091 49.0265M127.091 49.0265C126.885 48.4796 128.376 47.127 128.117 46.319C128.059 46.1376 128.135 45.477 127.972 45.223C127.828 44.0369 125.8 43.203 125.224 44.4865M127.091 49.0265C126.349 48.4988 125.844 48.7276 125.042 47.8358M127.091 49.0265C126.468 49.2834 124.886 48.8085 124.575 48.2877C124.585 48.1094 124.576 48.0761 124.677 47.9157M125.224 44.4865C125.07 44.2846 125.107 44.3457 124.796 44.2426M125.224 44.4865C125.073 45.2742 125.163 47.5043 125.042 47.8358M153.17 44.5095L153.659 44.2071C153.823 44.3454 153.785 44.6104 153.808 44.8679M153.17 44.5095C152.344 45.6178 152.512 47.6994 153.499 48.6679C153.712 48.7477 153.886 48.8112 154.104 48.8774M156.58 46.0237C156.622 47.4751 156.287 47.7329 155.749 49.1335C156.503 48.5782 156.804 48.3586 157.158 47.5069C157.532 46.6031 157.431 45.0089 156.952 44.1416C155.997 43.3122 153.802 43.2675 153.17 44.5095M156.58 46.0237C156.536 45.5979 156.438 44.537 156.254 44.1928C155.723 43.9933 154.594 43.9036 154.043 44.0702C153.922 44.1066 153.844 44.7053 153.808 44.8679C153.182 46.1533 153.588 47.1524 154.086 48.4379M154.086 48.4379L154.104 48.8774M154.086 48.4379C154.708 48.7763 155.093 48.6454 155.674 48.9772L155.609 49.0724C154.919 49.1419 154.739 49.1544 154.104 48.8774M141.921 44.7814L142.39 44.4777L142.595 44.5165L142.69 44.6831M142.69 44.6831L142.949 44.2256C144.172 43.3346 144.623 44.5371 145.39 44.3831C145.581 44.1396 145.598 44.1075 145.627 43.8111C145.223 43.475 143.728 43.6404 142.931 43.5954C142.487 44.0195 142.102 44.2449 141.921 44.7814C141.548 46.0002 141.533 47.5292 142.288 48.6421C143.114 48.9501 145.254 49.8074 145.525 48.3894C145.587 48.068 145.577 47.8699 145.364 47.619L145.187 47.6242C144.984 47.8328 144.899 48.4483 144.833 48.7574C143.398 48.7546 143.029 48.941 142.642 47.5897M142.69 44.6831C142.578 45.6044 142.626 46.6537 142.642 47.5897M142.642 47.5897C142.604 48.1602 142.672 48.2094 142.288 48.6421M156.952 44.1416C156.23 44.5116 156.708 45.2233 156.58 46.0237M125.042 47.8358L124.677 47.9157M79.1895 48.7538C80.3597 48.5948 79.7281 48.1545 80.4817 47.737L80.7098 47.7089C81.1627 49.0925 79.2151 49.3817 78.179 48.9838M79.1895 48.7538C78.906 48.7993 78.4011 48.8528 78.179 48.9838M89.9591 43.6243C89.9654 43.6852 89.9834 43.9074 89.9996 43.9509M88.1922 46.1062H90.5135V46.6124H88.1948M88.1578 46.6124H88.1948M165.928 43.8283H167.891V44.8407M164.016 31.9652C164.604 32.1233 165.261 32.2998 165.869 32.3207C170.071 32.4645 174.312 32.3431 178.519 32.3655C181.644 32.3822 181.871 31.7904 183.486 29.7314L183.5 29.5429C182.802 29.2441 173.298 29.2726 171.802 29.3417C172.271 27.8393 172.782 26.348 173.335 24.8692C173.554 24.2654 174.084 22.9481 174.2 22.3932C177.146 22.6176 179.395 22.0364 180.599 19.3355C178.859 19.3706 177.035 19.3073 175.287 19.2689C175.899 17.9317 176.402 16.067 176.872 14.6619C177.233 13.587 177.691 12.3065 177.923 11.2283C176.776 11.1675 175.133 11.1315 173.973 11.205C173.45 11.426 172.814 12.7928 172.475 13.2979C171.695 14.4573 170.908 15.7048 169.744 16.5957C168.186 17.7856 166.077 18.1571 164.452 19.1946C163.801 19.6095 163.44 21.6405 163.261 22.3653C164.239 22.369 165.215 22.3898 166.192 22.4277C165.713 24.086 165.171 25.7287 164.566 27.353C164.337 27.9761 163.987 28.7083 163.796 29.3172C160.914 29.3381 157.812 29.3737 154.937 29.2806C155.513 27.1378 156.316 25.0928 157.049 22.994C157.478 21.7653 157.713 20.4983 158.305 19.3334C154.567 19.3655 150.418 19.3314 146.681 19.2792C147.101 18.1978 147.498 17.1095 147.874 16.0146C148.138 15.2356 147.934 15.1543 148.536 14.4703C148.207 14.1535 147.416 14.1487 146.942 14.128C143.651 13.9847 138.305 14.4938 138.18 18.3723C138.083 21.373 138.698 20.9865 140.893 22.5247C140.114 24.7998 138.964 27.0763 138.221 29.3343L127.605 29.3348C126.335 29.3355 118.391 29.8366 118.692 27.911C118.874 26.7439 119.803 23.7335 120.581 22.6818C120.881 22.2402 124.472 22.2994 124.935 22.47C125.022 22.7916 123.093 25.605 123.116 26.2074C123.949 26.4955 129.765 26.4218 130.774 26.2987C133.773 22.954 132.21 20.1664 127.777 19.4725C126.401 19.2572 125.045 19.2987 123.656 19.2855C121.809 19.3136 119.946 19.1972 118.091 19.4121C115.746 19.6837 113.126 20.9567 111.668 22.667C110.284 24.4292 110.149 26.4696 110.538 28.556C110.591 28.8425 110.648 28.9613 110.819 29.2075C110.502 29.5065 102.579 29.2582 101.51 29.3147C101.225 29.3298 100.555 29.2627 100.285 29.1572L100.289 29.0258C102.602 28.2893 105.474 24.6872 104.42 22.4101C102.683 18.6569 96.9161 19.2988 93.2039 19.2938C93.8722 18.1109 94.7324 15.4908 94.9655 14.1786C93.6046 14.1617 88.2301 13.8978 87.3525 14.4543C86.9307 15.0286 85.3306 20.0279 85.0268 21.018C84.3105 22.8241 83.8203 24.5472 83.1984 26.3781L79.8691 36.0805C79.4176 37.4058 79.1133 38.5997 78.591 39.9154C80.9286 39.9538 84.0915 40.0493 86.3759 39.9373C86.6195 38.6878 87.2733 37.6856 87.6678 36.4938L90.7609 27.2696C91.3036 25.6944 91.9973 23.9524 92.4592 22.3776C93.9981 22.5419 94.7972 22.7042 96.1319 23.4957C96.6649 24.4636 96.8389 25.6329 96.4618 26.672C95.7209 28.7125 93.1895 28.9095 91.6286 30.1191C91.2077 30.5063 92.37 32.2177 92.7097 32.24C97.4946 32.5534 102.423 32.3273 107.224 32.3337C111.14 32.339 109.809 28.327 112.854 30.9424C113.585 31.5703 115.614 32.167 116.633 32.2164C122.419 32.4974 128.317 32.394 134.118 32.2924M159.767 43.6063C160.414 43.5952 162.576 43.5127 162.699 44.1234L162.372 44.2936C161.978 44.3513 161.752 44.17 161.411 43.9744C161.2 43.9756 160.312 43.9726 160.165 44.0422C158.735 44.7224 159.663 47.9249 159.954 48.749L161.594 48.7287C161.798 48.3861 162.089 47.7403 162.56 47.7713C162.629 48.0602 162.445 48.4279 162.246 48.6513C160.794 50.2747 158.63 48.3804 158.547 46.8036C158.469 45.3361 158.775 44.7044 159.767 43.6063ZM100.13 43.4644C100.265 43.4895 100.605 43.5545 100.614 43.632C100.717 44.5436 100.6 47.983 100.545 48.7444C102.2 48.7573 103.372 48.4963 102.751 46.5902C102.71 46.4648 102.267 46.3877 102.126 46.3506L100.641 46.1062L102.197 46.0434C102.699 46.0442 102.968 46.0749 103.28 46.4444C103.43 47.3358 103.37 47.748 103.207 48.6042C102.516 48.8967 99.9094 49.6472 99.4377 48.9058C99.5497 48.8401 99.9145 48.6169 99.9186 48.5409C99.9704 47.5798 99.9556 44.5905 99.8173 43.7743L99.8006 43.6803L100.13 43.4644ZM163.49 43.4975C164.853 43.7203 165.928 43.5752 165.928 43.5752C165.928 43.5752 166.068 47.8581 166.056 48.65C166.343 48.7352 166.503 48.7634 166.727 48.9533L166.679 49.0586C166.234 49.1666 165.275 49.1179 164.776 49.1105L164.659 49.0433L164.629 48.9028C164.749 48.8382 164.877 48.7706 164.98 48.6854C165.388 48.3464 165.24 44.7913 165.3 44.0634L163.974 43.8906C163.928 44.2503 163.949 44.7589 163.698 45.0065L163.555 44.906C163.39 44.4348 163.457 43.9896 163.49 43.4975ZM147.139 43.5182C147.634 43.5556 147.654 43.4902 148.019 43.7076C147.742 45.225 147.755 46.8437 147.76 48.3801C147.762 48.7172 148.227 48.7748 148.536 49.0141C148.18 49.0985 147.093 49.2014 146.753 49.0586C146.685 48.6609 146.818 48.7826 146.97 48.4371C147.395 47.47 146.809 44.4814 147.139 43.5182ZM150.556 43.4729L150.991 43.5712C151.303 43.9643 150.95 47.5281 151.08 48.5569C151.251 48.7279 151.367 48.8085 151.42 49.0289L151.074 49.1416C150.633 49.1349 150.471 49.1308 150.041 49.0524L149.954 48.9105C150.366 48.6138 150.469 48.2742 150.453 47.8148C150.405 46.466 150.407 45.0268 150.29 43.6866L150.556 43.4729ZM104.689 43.5277C105.053 43.5404 105.124 43.5516 105.48 43.631C105.695 43.9299 105.254 44.0295 105.244 44.4632C105.213 45.7431 105.177 47.067 105.223 48.3451C105.229 48.5248 105.57 48.7454 105.729 48.844L105.815 48.8972L105.827 49.0319L105.599 49.0969C105.19 49.1173 104.269 49.1718 103.927 49.0162L103.956 48.8826L104.57 48.6876C104.798 48.1799 104.397 44.0855 104.689 43.5277ZM115.453 46.0943C116.306 46.0766 117.427 46.1062 117.427 46.6124C116.867 46.6124 115.443 46.8359 115.453 46.0943ZM147.935 45.7747C148.612 45.6924 149.373 45.5515 149.966 45.8714C149.266 46.0118 148.614 45.9677 147.935 45.7747Z" stroke="#B3262E"/>
</svg>
