<svg width="185" height="93" viewBox="0 0 185 93" fill="none" xmlns="http://www.w3.org/2000/svg">
<path d="M52.7656 36.47C53.4088 35.8155 54.1432 35.3424 54.7154 34.7293C54.2025 36.7547 53.512 38.6389 52.8463 40.6222C51.8268 43.6598 50.8685 46.8081 49.7711 49.8207C47.2052 56.8653 44.1109 63.7879 40.1115 70.274C39.6292 71.0529 39.1772 71.8772 38.6881 72.6248C37.8798 73.8682 36.6344 75.0546 35.786 76.2373C33.8435 78.9453 31.7586 81.1014 28.8821 83.0313C27.236 84.1357 25.3984 85.5084 23.5046 86.2624C19.549 87.8374 15.3439 88.157 11.117 87.4348C10.0278 87.2538 8.04324 86.5842 7.05087 86.1614C6.0777 85.7469 4.91967 84.9101 3.90384 84.6562C2.91732 84.4096 2.41782 83.5477 1.41323 83.0161C0.733249 84.243 0.14851 86.8709 0.75182 88.1596C3.80664 94.685 14.2749 92.3847 19.9139 90.6286C24.2047 89.2924 27.01 87.3664 30.7183 85.2553C43.8237 77.7944 51.1103 65.0531 56.7025 52.5029C58.7347 47.9205 60.5964 43.2779 62.2845 38.5829C62.8949 36.9101 63.4119 35.1816 64.0091 33.5021C64.2281 32.8863 64.4452 31.9794 64.7122 31.4293C64.5123 31.3322 57.644 32.3013 56.5561 32.3813C57.2403 31.5031 58.3627 29.9876 59.103 29.2063C59.2106 28.9267 60.2929 27.4238 60.5682 26.972C61.7634 25.0112 62.4171 23.7228 63.1206 21.61C63.164 21.0127 63.5602 19.9438 63.6872 19.1753C63.9103 17.5754 63.6889 16.2575 63.0411 14.7293C62.7608 14.0682 61.5387 12.6679 60.7695 12.4472C59.8054 12.6163 59.6839 15.0821 59.4066 15.9229C57.9614 20.305 55.9437 24.5189 53.4344 28.4905C53.2435 28.7926 52.9391 29.0953 52.7685 29.3715C52.199 30.5268 51.4447 31.6326 50.4921 32.5616C50.1965 32.9274 49.9614 33.3347 49.6626 33.7019C45.8356 38.4066 36.357 48.9729 29.8205 49.8354C28.1584 50.0547 27.1634 49.4561 25.8875 48.6079C25.6054 48.1055 25.2641 47.1673 25.1553 46.6159C23.7166 39.3318 28.4764 31.3494 32.7842 25.5432C32.9504 25.3568 33.2815 24.8029 33.4402 24.575C34.6948 22.7736 36.0156 21.3014 37.9002 20.0097C38.3168 19.311 39.474 18.4439 40.1514 17.8626C44.8972 13.8209 51.0189 10.7048 57.3065 9.13548C60.288 8.39144 63.7368 7.5706 66.8515 7.37738C70.1561 7.30768 73.4215 6.95927 76.7175 6.8713C78.0543 6.83555 79.7927 7.27353 81.1175 7.23149C82.0383 7.20233 84.9637 7.75344 85.4282 7.15789C85.4658 7.10866 85.5 7.05743 85.5307 7.00441C86.1318 5.98396 86.7211 3.01549 86.2884 1.80429C86.2343 1.65499 86.1753 1.5072 86.1113 1.36113C83.6378 0.379671 83.0705 0.505572 80.4042 0.504933C73.6012 0.544187 66.8611 1.68368 60.5033 3.86939C44.6961 9.34418 31.3356 19.3808 22.499 32.4188C22.0795 33.0506 21.281 33.8494 20.9719 34.3544C20.4103 35.3359 19.8527 36.3292 19.3583 37.3419C17.4845 41.1797 16.3957 44.8505 16.5228 49.0822C16.5938 51.4455 16.9989 53.9282 19.7096 55.1132C20.3654 55.3997 21.787 55.6678 22.5536 55.7625C24.3888 55.6023 26.5015 55.1596 28.1885 54.5008C33.0975 52.5837 37.4083 49.556 41.4657 46.4569C42.5976 45.7285 43.4844 44.9803 44.3911 44.0278C44.6455 43.7606 45.9228 43.3046 46.0883 43.0783C46.8396 42.0505 47.966 41.3104 48.9013 40.3943C50.2341 39.0887 51.4828 37.8103 52.7656 36.47Z" fill="#B3262E"/>
<path d="M70.8576 19.3793C69.7863 19.3095 64.0352 19.3647 63.6872 19.1753C63.5602 19.9438 63.164 21.0127 63.1206 21.61L63.401 21.7284C64.1383 23.0039 65.2379 24.1116 65.9262 25.3964C65.9587 25.4571 65.9936 25.6034 66.0041 25.6535C65.1758 26.509 61.379 29.1276 59.9086 29.2469C59.7598 29.259 59.275 29.231 59.103 29.2063C58.3627 29.9876 57.2403 31.5031 56.5561 32.3813C57.644 32.3013 64.5123 31.3322 64.7122 31.4293C64.8329 31.3763 65.4964 30.9002 65.6229 30.8039C66.6257 30.041 67.4351 29.5513 68.6245 29.071C69.3838 29.8972 70.6875 31.3991 71.2796 32.2939C73.3921 32.5103 77.8514 32.3507 80.1672 32.3431C78.9432 30.4238 77.328 28.5944 76.0302 26.7011C75.58 26.0443 75.189 25.4256 74.6926 24.7921C77.2946 23.077 80.381 21.0961 82.8567 19.3315C77.5467 19.5436 77.0819 18.1494 72.5883 21.413C71.5348 20.6252 71.4318 20.5 70.8576 19.3793Z" fill="black"/>
<path d="M44.1693 19.2559C42.0546 19.2317 39.543 19.1493 37.9002 20.0097C36.0156 21.3014 34.6948 22.7736 33.4402 24.575C33.2815 24.8029 32.9504 25.3568 32.7842 25.5432C32.6102 26.609 32.6394 26.6634 32.9265 27.7196C34.4766 33.4238 42.1893 32.2758 47.0971 32.3583C47.9242 32.3723 49.8897 32.1614 50.4921 32.5616C51.4447 31.6326 52.199 30.5268 52.7685 29.3715C52.1549 29.3836 51.4137 29.3527 50.7915 29.3344C47.8501 29.2482 44.8305 29.6112 41.9824 28.8597C41.7287 28.5728 41.4793 28.2828 41.2344 27.9897C41.2592 27.8962 41.2851 27.803 41.3121 27.7099C41.5389 26.9339 42.6878 23.1479 43.2812 22.6336C43.623 22.3373 46.9797 22.3266 47.5726 22.4764L47.6261 22.5969C47.2793 22.9698 45.855 25.7695 45.6518 26.3526C47.7339 26.3536 51.5913 26.6885 53.4555 26.0793C54.386 25.7751 54.8426 23.9586 55.1615 23.0502C54.9796 22.6768 54.6116 21.6333 54.3941 21.3743C52.2374 18.8057 47.2349 19.2909 44.1693 19.2559Z" fill="black"/>
<path d="M173.973 11.2048C175.133 11.1313 176.776 11.1674 177.923 11.2282C177.691 12.3064 177.233 13.5869 176.872 14.6618C176.402 16.0668 175.899 17.9316 175.287 19.2688C177.035 19.3072 178.859 19.3704 180.599 19.3354C179.395 22.0362 177.146 22.6175 174.2 22.393C174.084 22.948 173.554 24.2653 173.335 24.8691C172.782 26.3479 172.271 27.8392 171.802 29.3416C173.298 29.2725 182.802 29.244 183.5 29.5428L183.486 29.7313C181.871 31.7903 181.644 32.382 178.519 32.3654C174.312 32.343 170.071 32.4643 165.869 32.3205C165.261 32.2997 164.604 32.1231 164.016 31.9651L163.93 31.9421L163.78 30.4536C163.318 31.0186 162.08 32.0333 161.381 32.1015C158.541 32.3786 150.32 32.8715 148.062 31.786C148.03 31.709 147.999 31.6313 147.971 31.5531C147.241 29.5659 148.195 27.4748 148.796 25.5665C149.12 24.5323 149.444 23.3391 149.973 22.3924C148.61 22.3494 147.017 22.4043 145.628 22.4044C145.362 23.1148 144.84 24.103 144.507 24.8255C143.808 26.3462 143.402 27.6757 142.349 29.0228C141.027 29.5141 140.18 29.4557 138.828 29.3625L138.707 29.3543C137.778 30.5821 136.418 32.2517 134.578 32.2842L134.118 32.2922C128.317 32.3939 122.419 32.4972 116.633 32.2163C115.614 32.1669 113.585 31.5702 112.854 30.9423C109.809 28.3269 111.14 32.3389 107.224 32.3336C102.423 32.3271 97.4945 32.5533 92.7097 32.2399C92.37 32.2176 91.2076 30.5062 91.6286 30.119C93.1895 28.9094 95.7208 28.7124 96.4617 26.6719C96.8389 25.6327 96.6649 24.4635 96.1319 23.4956C94.7972 22.7041 93.998 22.5417 92.4591 22.3775C91.9972 23.9523 91.3035 25.6943 90.7609 27.2695L87.6677 36.4937C87.2733 37.6855 86.6195 38.6877 86.3758 39.9372C84.0914 40.0492 80.9285 39.9537 78.5909 39.9152C79.1132 38.5996 79.4176 37.4057 79.8691 36.0804L83.1984 26.378C83.8202 24.5471 84.3104 22.824 85.0267 21.0179C85.3306 20.0278 86.9306 15.0285 87.3525 14.4542C88.23 13.8977 93.6046 14.1615 94.9654 14.1785C94.7323 15.4906 93.8721 18.1108 93.2039 19.2936C96.9161 19.2986 102.683 18.6567 104.42 22.41C105.474 24.6871 102.602 28.2892 100.289 29.0257L100.285 29.157C100.555 29.2626 101.225 29.3297 101.51 29.3146C102.579 29.2581 110.502 29.5063 110.818 29.2074C110.648 28.9612 110.591 28.8424 110.538 28.5559C110.149 26.4694 110.284 24.429 111.668 22.6669C113.126 20.9566 115.746 19.6836 118.091 19.412C119.946 19.1971 121.808 19.3135 123.656 19.2854C125.045 19.2985 126.401 19.2571 127.777 19.4724C132.21 20.1663 133.773 22.9538 130.774 26.2986C129.764 26.4217 123.949 26.4954 123.116 26.2073C123.093 25.6049 125.022 22.7915 124.935 22.4698C124.472 22.2993 120.88 22.2401 120.581 22.6816C119.803 23.7333 118.874 26.7438 118.692 27.9109C118.391 29.8365 126.335 29.3354 127.605 29.3347L138.22 29.3342C138.964 27.0762 140.114 24.7997 140.893 22.5246C138.698 20.9863 138.083 21.3729 138.18 18.3722C138.305 14.4937 143.651 13.9846 146.942 14.1279C147.416 14.1486 148.207 14.1533 148.536 14.4702C147.934 15.1542 148.138 15.2355 147.874 16.0145C147.498 17.1093 147.101 18.1977 146.681 19.2791C150.418 19.3313 154.567 19.3653 158.305 19.3333C157.713 20.4981 157.478 21.7651 157.049 22.9939C156.316 25.0927 155.513 27.1377 154.937 29.2805C157.812 29.3736 160.914 29.338 163.796 29.3171C163.987 28.7082 164.337 27.976 164.566 27.3529C165.171 25.7286 165.713 24.0858 166.192 22.4276C165.215 22.3896 164.239 22.3689 163.261 22.3652C163.44 21.6404 163.801 19.6094 164.452 19.1945C166.077 18.157 168.186 17.7855 169.744 16.5956C170.908 15.7046 171.695 14.4572 172.475 13.2978C172.814 12.7927 173.45 11.4259 173.973 11.2048Z" fill="black"/>
<path d="M37.9002 20.0097C38.3168 19.311 39.474 18.4439 40.1514 17.8626C44.8972 13.8209 51.0189 10.7048 57.3065 9.13548C60.288 8.39144 63.7368 7.5706 66.8515 7.37738C70.1561 7.30768 73.4215 6.95927 76.7175 6.8713C78.0543 6.83555 79.7927 7.27353 81.1175 7.23149C82.0383 7.20233 84.9637 7.75344 85.4282 7.15789C85.4658 7.10866 85.5 7.05743 85.5307 7.00441C86.1318 5.98396 86.7211 3.01549 86.2884 1.80429C86.2343 1.65499 86.1753 1.5072 86.1113 1.36113C83.6378 0.379671 83.0705 0.505572 80.4042 0.504933C73.6012 0.544187 66.8611 1.68368 60.5033 3.86939C44.6961 9.34418 31.3356 19.3808 22.499 32.4188C22.0795 33.0506 21.281 33.8494 20.9719 34.3544C20.4103 35.3359 19.8527 36.3292 19.3583 37.3419C17.4845 41.1797 16.3957 44.8505 16.5228 49.0822C16.5938 51.4455 16.9989 53.9282 19.7096 55.1132C20.3654 55.3997 21.787 55.6678 22.5536 55.7625C24.3888 55.6023 26.5015 55.1596 28.1885 54.5008C33.0975 52.5837 37.4083 49.556 41.4657 46.4569C42.5976 45.7285 43.4844 44.9803 44.3911 44.0278C44.6455 43.7606 45.9228 43.3046 46.0883 43.0783C46.8396 42.0505 47.966 41.3104 48.9013 40.3943C50.2341 39.0887 51.4828 37.8103 52.7656 36.47C53.4088 35.8155 54.1432 35.3424 54.7154 34.7293C54.2025 36.7547 53.512 38.6389 52.8463 40.6222C51.8268 43.6598 50.8685 46.8081 49.7711 49.8207C47.2052 56.8653 44.1109 63.7879 40.1115 70.274C39.6292 71.0529 39.1772 71.8772 38.6881 72.6248C37.8798 73.8682 36.6344 75.0546 35.786 76.2373C33.8435 78.9453 31.7586 81.1014 28.8821 83.0313C27.236 84.1357 25.3984 85.5084 23.5046 86.2624C19.549 87.8374 15.3439 88.157 11.117 87.4348C10.0278 87.2538 8.04324 86.5842 7.05087 86.1614C6.0777 85.7469 4.91967 84.9101 3.90384 84.6562C2.91732 84.4096 2.41782 83.5477 1.41323 83.0161C0.733249 84.243 0.14851 86.8709 0.75182 88.1596C3.80664 94.685 14.2749 92.3847 19.9139 90.6286C24.2047 89.2924 27.01 87.3664 30.7183 85.2553C43.8237 77.7944 51.1103 65.0531 56.7025 52.5029C58.7347 47.9205 60.5964 43.2779 62.2845 38.5829C62.8949 36.9101 63.4119 35.1816 64.0091 33.5021C64.2281 32.8863 64.4452 31.9794 64.7122 31.4293M37.9002 20.0097C39.543 19.1493 42.0546 19.2317 44.1693 19.2559C47.2349 19.2909 52.2374 18.8057 54.3941 21.3743C54.6116 21.6333 54.9796 22.6768 55.1615 23.0502C54.8426 23.9586 54.386 25.7751 53.4555 26.0793C51.5913 26.6885 47.7339 26.3536 45.6518 26.3526C45.855 25.7695 47.2793 22.9698 47.6261 22.5969L47.5726 22.4764C46.9797 22.3266 43.623 22.3373 43.2812 22.6336C42.6878 23.1479 41.5389 26.9339 41.3121 27.7099C41.2851 27.803 41.2592 27.8962 41.2344 27.9897C41.4793 28.2828 41.7287 28.5728 41.9824 28.8597C44.8305 29.6112 47.8501 29.2482 50.7915 29.3344C51.4137 29.3527 52.1549 29.3836 52.7685 29.3715M50.4921 32.5616C50.1965 32.9274 49.9614 33.3347 49.6626 33.7019C45.8356 38.4066 36.357 48.9729 29.8205 49.8354C28.1584 50.0547 27.1634 49.4561 25.8875 48.6079C25.6054 48.1055 25.2641 47.1673 25.1553 46.6159C23.7166 39.3318 28.4764 31.3494 32.7842 25.5432C32.9504 25.3568 33.2815 24.8029 33.4402 24.575C34.6948 22.7736 36.0156 21.3014 37.9002 20.0097M52.7685 29.3715C52.9391 29.0953 53.2435 28.7926 53.4344 28.4905C55.9437 24.5189 57.9614 20.305 59.4066 15.9229C59.6839 15.0821 59.8054 12.6163 60.7695 12.4472C61.5387 12.6679 62.7608 14.0682 63.0411 14.7293C63.6889 16.2575 63.9103 17.5754 63.6872 19.1753M52.7685 29.3715C52.199 30.5268 51.4447 31.6326 50.4921 32.5616M63.6872 19.1753C64.0352 19.3647 69.7863 19.3095 70.8576 19.3793C71.4318 20.5 71.5348 20.6252 72.5883 21.413C77.0819 18.1494 77.5467 19.5436 82.8567 19.3315C80.381 21.0961 77.2946 23.077 74.6926 24.7921C75.189 25.4256 75.58 26.0443 76.0302 26.7011C77.328 28.5944 78.9432 30.4238 80.1672 32.3431C77.8514 32.3507 73.3921 32.5103 71.2796 32.2939C70.6875 31.3991 69.3838 29.8972 68.6245 29.071C67.4351 29.5513 66.6257 30.041 65.6229 30.8039C65.4964 30.9002 64.8329 31.3763 64.7122 31.4293M63.6872 19.1753C63.5602 19.9438 63.164 21.0127 63.1206 21.61M64.7122 31.4293C64.5123 31.3322 57.644 32.3013 56.5561 32.3813C57.2403 31.5031 58.3627 29.9876 59.103 29.2063M50.4921 32.5616C49.8897 32.1614 47.9242 32.3723 47.0971 32.3583C42.1893 32.2758 34.4766 33.4238 32.9265 27.7196C32.6394 26.6634 32.6102 26.609 32.7842 25.5432M63.1206 21.61C63.1939 21.6409 63.2873 21.6804 63.401 21.7284C64.1383 23.0039 65.2379 24.1116 65.9262 25.3964C65.9587 25.4571 65.9936 25.6034 66.0041 25.6535C65.1758 26.509 61.379 29.1276 59.9086 29.2469C59.7598 29.259 59.275 29.231 59.103 29.2063M59.103 29.2063C59.2106 28.9267 60.2929 27.4238 60.5682 26.972C61.7634 25.0112 62.4171 23.7228 63.1206 21.61M63.401 21.7284L63.1206 21.61M164.016 31.9651L163.93 31.9421L163.78 30.4536C163.318 31.0186 162.08 32.0333 161.381 32.1015C158.541 32.3786 150.32 32.8715 148.062 31.786C148.03 31.709 147.999 31.6313 147.971 31.5531C147.241 29.5659 148.195 27.4748 148.796 25.5665C149.12 24.5323 149.444 23.3391 149.973 22.3924C148.61 22.3494 147.017 22.4043 145.628 22.4044C145.362 23.1148 144.84 24.103 144.507 24.8255C143.808 26.3462 143.402 27.6757 142.349 29.0228C141.027 29.5141 140.18 29.4557 138.828 29.3625C138.788 29.3598 138.748 29.357 138.707 29.3543C137.778 30.5821 136.418 32.2517 134.578 32.2842L134.118 32.2922M163.93 31.9421C163.959 31.9497 163.987 31.9574 164.016 31.9651M138.707 29.3543L138.828 29.3625M134.578 32.2842C134.425 32.2869 134.271 32.2896 134.118 32.2922M137.384 46.5225C137.328 46.647 137.25 46.859 137.162 46.9509L137.12 47.0305C136.614 48.0077 136.753 48.273 137.423 49.0524C137.05 49.1339 135.289 49.1017 134.844 49.0772C135.247 48.887 135.758 48.6635 136.143 48.4594C136.548 47.4537 137.523 44.1673 138.543 43.6838C139.342 43.7604 139.668 46.2067 139.678 46.8362L140.342 47.4234C140.383 47.8984 140.66 48.9742 140.641 49.0959C140.211 49.1437 139.268 49.1578 138.903 48.948C139.19 48.611 139.567 48.8294 139.703 48.4653C139.569 48.0841 139.313 47.2778 139.124 46.9554M137.384 46.5225C137.654 45.6105 138.154 45.2321 138.542 43.9527C138.662 45.0183 138.684 45.8252 139.216 46.7931L139.124 46.9554M139.124 46.9554C138.396 47.142 137.895 47.0785 137.162 46.9509M139.216 46.7931C138.65 46.7663 137.769 46.8055 137.384 46.5225M95.5598 48.1309C95.3718 47.7629 94.7035 46.5798 94.5422 46.2061C94.368 45.8027 94.4631 45.2158 94.1174 44.8625C93.8848 44.8021 93.8443 44.7947 93.6032 44.7805C93.4646 44.2199 93.8355 44.0456 93.6307 43.6449C93.3085 43.4822 92.9582 43.5395 92.582 43.5583L92.4004 43.7007C92.4385 44.0079 92.6592 44.2188 92.6265 44.5026C92.4991 45.6052 92.9888 48.0963 92.2156 48.9151L92.2741 49.0646C92.6478 49.1364 93.3364 49.1558 93.6446 48.9446C93.5173 48.744 93.4722 48.7218 93.2769 48.5659C93.1933 47.8911 93.1746 45.5765 93.4782 45.0107C93.836 45.3571 94.1993 47.4878 94.7175 48.2594C94.9818 48.2542 94.9478 48.2594 94.9478 48.2594C95.5598 48.1309 95.2794 48.1309 95.5598 48.1309ZM95.5598 48.1309C96.0249 47.6514 96.6429 44.6442 96.9869 44.4548C97.2541 44.7538 97.0369 46.1643 96.99 46.5991C97.0023 46.9663 96.7884 49.0161 96.777 48.9823C97.0662 49.188 98.1708 49.2455 98.4375 48.9604C97.897 48.5197 97.6467 48.9118 97.5789 47.9816C97.5187 47.1581 97.976 44.1853 97.6187 43.6421C97.2816 43.5215 97.1421 43.5346 96.7899 43.5302C96.4282 44.3632 94.9991 47.8778 95.5598 48.1309ZM71.611 47.1718C72.2618 46.3972 73.2189 45.9338 73.9065 44.9484C74.6812 43.8383 73.7211 43.5052 75.1209 43.561C75.2704 44.3685 74.974 47.2677 75.0681 48.2868C75.1254 48.9081 75.5273 48.5984 75.444 49.0432C75.0441 49.1696 74.0849 49.1595 73.6666 49.0489L73.5903 48.9079C73.9739 48.5539 74.1568 48.8342 74.4342 48.4572C74.4205 47.8866 74.5009 45.834 74.0534 45.4689C73.7915 45.5551 72.3727 47.2821 72.0087 47.634M72.0087 47.634C71.223 48.4965 72.0667 48.8052 72.8396 49.0911C72.2398 49.1054 70.8819 49.1783 70.3675 49.0528C70.243 48.583 71.0165 49.1007 71.028 48.1599C71.0386 47.2868 70.791 44.1776 71.1769 43.5837C71.5544 43.5194 71.8061 43.4758 72.0186 43.7873C71.7361 44.6102 71.7009 46.2432 71.611 47.1718L71.71 47.5006L72.0087 47.634ZM89.9996 43.9508C90.261 44.093 90.5051 44.3246 90.7308 44.5174C91.0657 44.2813 91.2009 44.0868 91.0141 43.734C90.6727 43.5187 90.3797 43.5882 89.9591 43.6242C89.6252 43.7321 88.5674 43.7893 88.2577 43.6103C87.8585 43.5924 87.5613 43.5473 87.2008 43.7005L87.1444 43.8208C87.239 43.9553 87.3548 44.12 87.4916 44.3146C87.5127 45.6267 87.3165 47.0196 87.5327 48.3147C87.4311 48.6304 87.1618 48.7554 86.8612 48.9491C87.1537 49.206 90.4317 49.1965 90.8718 49.0607C91.2478 48.6189 91.1252 48.0298 90.8282 47.5712L90.6421 47.5196C90.3758 47.8309 90.338 48.3179 90.2834 48.7118L88.1578 48.7452C88.2 48.2513 88.1989 47.4422 88.1947 46.6123M88.2577 43.6103L88.2655 43.8345M88.2655 43.8345C88.8985 43.9533 89.3381 44.0345 89.9996 43.9508M88.1947 46.6123C88.1939 46.4436 88.1929 46.274 88.1922 46.1061C88.1878 45.1362 88.1905 44.2202 88.2655 43.8345M84.1952 43.6211C83.323 43.4706 82.9443 43.7464 81.6415 43.4958C81.6073 43.9877 81.5379 44.4353 81.7063 44.9055L81.8477 45.0044C82.1006 44.7571 82.0778 44.2534 82.1234 43.8871L83.4426 44.0707C83.3406 45.2477 83.7384 48.3725 82.7851 48.901L82.8127 49.046L82.9266 49.1105C83.425 49.1178 84.3847 49.1671 84.8281 49.0568L84.857 48.9256C84.5838 48.7674 84.5169 48.7448 84.2081 48.6518C84.2198 47.858 84.3271 44.097 84.1952 43.6211ZM84.1952 43.6211C84.7407 44.2275 85.4432 44.2127 85.5137 44.9866L85.7107 45.0564C86.0579 44.7656 86.1463 43.9582 85.8937 43.5815L85.6994 43.5397C85.3097 43.5983 84.626 43.575 84.1952 43.6211ZM112.899 48.6531C113.054 48.3916 113.273 47.9732 113.334 47.6866C113.635 46.2797 111.473 45.9969 110.138 45.853L110.163 46.1061C110.259 46.3485 112.03 46.4734 112.324 46.672C112.449 47.1488 112.337 47.8468 112.288 48.3536C111.792 48.914 110.857 48.7306 110.101 48.6935C110.146 47.3684 110.22 45.2035 110.091 43.9143C110.743 43.9348 111.698 43.9261 112.288 44.0981C112.428 44.2589 112.57 44.4177 112.715 44.5744C113.066 44.4337 113.034 44.2407 112.974 43.9175C112.298 43.3007 111.156 43.7859 110.288 43.6328C109.966 43.5759 109.618 43.5447 109.29 43.4915L109.302 43.5382C109.56 44.5851 109.469 47.3062 109.456 48.462C109.331 48.6259 109.201 48.7871 109.069 48.9456C109.671 49.6028 112.115 48.8894 112.899 48.6531ZM112.288 48.3536L112.413 48.5547L112.899 48.6531M122.211 48.8478C122.894 48.2293 122.84 47.7153 122.934 46.8887L122.256 45.8472C122.645 45.5145 122.981 45.0753 123.025 44.5779C123.042 44.3916 122.972 44.2073 122.833 44.0688C122.246 43.4823 120.761 43.6954 119.853 43.5478C119.326 43.74 119.195 43.6943 119.193 44.298C119.779 44.9498 120.916 43.3142 121.856 44.0194C122.093 44.5887 121.755 45.8379 121.22 46.1238C120.758 46.055 120.53 45.9373 120.207 46.12L120.169 46.2813C120.548 46.6169 121.196 46.4074 121.726 46.3384C121.877 46.6515 122.072 47.0983 122.283 47.3634C122.092 47.9 121.891 48.2463 122.082 48.7729L122.211 48.8478ZM122.211 48.8478C121.989 48.2288 120.734 48.9165 120.246 48.6519C119.553 48.2772 119.993 47.6883 119.096 47.5434C119.062 47.9524 118.972 48.2378 119.285 48.5675C119.865 49.1794 121.387 48.9768 122.211 48.8478ZM170.177 47.2559C170.789 47.0196 172.407 44.8266 172.732 44.222C172.631 44.0063 172.582 43.9869 172.382 43.8255L172.44 43.6633C172.779 43.5783 173.366 43.5473 173.637 43.778C173.539 43.9948 173.51 44.0275 173.357 44.2196C173.32 44.8045 173.403 45.1314 173.392 45.6453C173.371 46.5987 173.3 47.5691 173.266 48.5263C173.736 48.7665 174.128 48.8922 174.555 49.1047C174.01 49.1165 172.582 49.2247 172.219 48.9528C172.37 48.6527 172.798 48.6072 172.78 48.4711C172.654 47.4965 172.878 45.7532 172.863 44.8742C172.261 45.5555 171.106 47.4187 170.29 47.525M170.29 47.525C170.266 47.5536 170.2 47.6161 170.191 47.6433C169.764 48.7983 170.246 48.6345 170.802 48.958L170.679 49.0943C170.198 49.126 169.327 49.221 168.926 48.9799L168.969 48.875C169.808 48.4358 169.256 48.2711 169.386 47.6715C169.549 46.9291 169.216 44.1452 169.425 43.7121C169.718 43.5278 169.585 43.5549 169.916 43.5963C170.453 44.1604 169.845 46.2031 170.177 47.2559C170.257 47.395 170.262 47.3739 170.29 47.525ZM133.681 48.5993C133.92 47.8589 133.569 45.1407 133.768 44.2141C133.818 43.9804 133.624 44.0102 133.678 43.6047C134.096 43.5653 134.115 43.506 134.456 43.6347C134.575 43.95 134.378 44.2829 134.367 44.6999C134.333 45.9432 134.288 47.3172 134.397 48.5553C134.542 48.7156 134.661 48.8471 134.754 48.9495L134.654 49.0736C134.251 49.129 133.48 49.1803 133.129 49.0036C133.202 48.7806 133.443 48.7122 133.681 48.5993M131.29 44.0411C131.118 43.8847 131.107 43.805 131.02 43.5933M131.29 44.0411C131.761 43.8603 133.009 43.9494 133.661 43.9123C133.584 44.7423 133.442 47.9112 133.681 48.5993M65.663 47.4372C65.2343 46.8739 65.3312 46.274 65.3429 45.5935C65.829 44.9888 66.2229 43.7227 67.0104 43.6717C67.5855 43.6345 69.3421 43.4321 69.5235 44.0567C69.377 44.2665 69.3689 44.3157 69.127 44.3982C67.6701 43.8809 67.3431 43.4799 66.3364 45.048C66.2943 45.7076 66.2129 46.5684 66.2173 47.2137C67.1096 48.522 66.6279 48.7492 68.4785 48.7546C68.876 48.1522 69.1293 47.752 69.6221 47.211C69.2293 49.4087 68.3277 49.6366 66.1692 48.5373L65.663 47.4372ZM65.3429 45.5935L65.8106 45.4683C66.4473 45.803 66.1232 46.7022 65.991 47.2471L65.663 47.4372M115.69 49.1137C115.272 49.1233 114.288 49.2388 114.09 48.9027C114.404 48.6259 114.595 48.6294 114.651 48.2299C114.804 47.1489 114.148 44.5227 114.72 43.6619C115.111 43.4974 115.111 43.5744 115.621 43.6451M115.69 49.1137L115.081 48.9862L115.391 48.7296M115.69 49.1137C116.377 49.1711 117.321 49.1315 118.032 49.1186C118.006 48.4815 118.211 48.2033 118.093 47.6474L117.821 47.8463L117.917 47.6876C117.681 47.9475 117.515 48.4055 117.374 48.7325L115.391 48.7296M115.621 43.6451C115.534 43.7779 115.509 43.8172 115.397 43.9397L115.398 43.9515M115.621 43.6451L115.731 43.6559C116.568 43.7337 117.795 43.5062 118.327 43.8647C118.25 44.1685 118.328 44.063 118.019 44.2519C117.579 44.2307 117.709 44.2388 117.308 43.9947C116.882 43.9727 115.779 43.9005 115.398 43.9515M115.398 43.9515C115.498 45.5607 115.441 47.1248 115.391 48.7296M78.1789 48.9837C77.9283 48.9093 77.6944 48.7231 77.4775 48.5754C77.3701 48.4214 77.2705 48.263 77.1787 48.1009C76.4722 46.849 76.3127 43.3663 78.9108 43.6571C79.5647 43.7303 80.5748 43.335 80.7965 43.9264C80.7146 44.2441 80.7806 44.2299 80.5353 44.4006C80.0322 44.3956 79.9359 44.1185 79.593 44.004C77.1748 43.1968 77.3223 46.7308 77.8375 47.9219C77.9995 48.3918 77.9142 48.3869 78.2633 48.683C78.634 48.7439 78.8164 48.7458 79.1894 48.7537M77.4775 48.5754C77.7194 48.3029 77.7337 48.2456 77.8375 47.9219M124.677 47.9156C123.606 47.0375 123.984 45.2035 124.796 44.2425C125.086 43.9722 125.122 43.8811 125.305 43.5486C126.137 43.6653 127.663 43.5162 128.146 43.9671C128.929 44.6984 128.508 49.055 127.091 49.0264M127.091 49.0264C126.885 48.4795 128.376 47.1269 128.116 46.3188C128.059 46.1375 128.135 45.4768 127.972 45.2229C127.828 44.0368 125.8 43.2029 125.224 44.4863M127.091 49.0264C126.349 48.4987 125.843 48.7275 125.042 47.8357M127.091 49.0264C126.468 49.2832 124.886 48.8084 124.575 48.2875C124.585 48.1093 124.576 48.076 124.677 47.9156M125.224 44.4863C125.07 44.2844 125.107 44.3456 124.796 44.2425M125.224 44.4863C125.073 45.274 125.163 47.5042 125.042 47.8357M153.17 44.5094L153.659 44.2069C153.823 44.3453 153.785 44.6103 153.808 44.8678M153.17 44.5094C152.344 45.6176 152.512 47.6993 153.499 48.6678C153.712 48.7476 153.886 48.8111 154.104 48.8773M156.58 46.0236C156.622 47.475 156.287 47.7327 155.748 49.1333C156.503 48.578 156.804 48.3585 157.158 47.5068C157.531 46.6029 157.431 45.0088 156.952 44.1414C155.997 43.3121 153.802 43.2674 153.17 44.5094M156.58 46.0236C156.536 45.5978 156.438 44.5369 156.254 44.1927C155.723 43.9932 154.594 43.9035 154.043 44.07C153.922 44.1065 153.844 44.7051 153.808 44.8678C153.182 46.1532 153.588 47.1523 154.086 48.4377M154.086 48.4377L154.104 48.8773M154.086 48.4377C154.708 48.7762 155.093 48.6452 155.674 48.9771L155.609 49.0722C154.919 49.1417 154.739 49.1543 154.104 48.8773M141.921 44.7812L142.39 44.4776L142.595 44.5164L142.69 44.683M142.69 44.683L142.949 44.2255C144.172 43.3345 144.622 44.537 145.39 44.383C145.581 44.1394 145.598 44.1074 145.627 43.811C145.223 43.4749 143.728 43.6403 142.931 43.5953C142.487 44.0194 142.102 44.2448 141.921 44.7812C141.548 46.0001 141.533 47.5291 142.288 48.6419C143.114 48.95 145.254 49.8073 145.525 48.3893C145.587 48.0679 145.577 47.8697 145.363 47.6189L145.186 47.6241C144.984 47.8327 144.899 48.4482 144.833 48.7573C143.398 48.7545 143.029 48.9409 142.641 47.5895M142.69 44.683C142.578 45.6043 142.626 46.6536 142.641 47.5895M142.641 47.5895C142.604 48.16 142.672 48.2093 142.288 48.6419M156.952 44.1414C156.23 44.5115 156.707 45.2232 156.58 46.0236M125.042 47.8357L124.677 47.9156M79.1894 48.7537C80.3597 48.5947 79.728 48.1543 80.4817 47.7368L80.7097 47.7088C81.1627 49.0924 79.215 49.3816 78.1789 48.9837M79.1894 48.7537C78.906 48.7992 78.401 48.8526 78.1789 48.9837M89.9591 43.6242C89.9654 43.6851 89.9833 43.9073 89.9996 43.9508M88.1922 46.1061H90.5134V46.6123H88.1947M88.1578 46.6123H88.1947M165.928 43.8281H167.891V44.8406M164.016 31.9651C164.604 32.1231 165.261 32.2997 165.869 32.3205C170.071 32.4643 174.312 32.343 178.519 32.3654C181.644 32.382 181.871 31.7903 183.486 29.7313L183.5 29.5428C182.802 29.244 173.298 29.2725 171.802 29.3416C172.271 27.8392 172.782 26.3479 173.335 24.8691C173.554 24.2653 174.084 22.948 174.2 22.393C177.146 22.6175 179.395 22.0362 180.599 19.3354C178.859 19.3704 177.035 19.3072 175.287 19.2688C175.899 17.9316 176.402 16.0668 176.872 14.6618C177.233 13.5869 177.691 12.3064 177.923 11.2282C176.776 11.1674 175.133 11.1313 173.973 11.2048C173.45 11.4259 172.814 12.7927 172.475 13.2978C171.695 14.4572 170.908 15.7046 169.744 16.5956C168.186 17.7855 166.077 18.157 164.452 19.1945C163.801 19.6094 163.44 21.6404 163.261 22.3652C164.239 22.3689 165.215 22.3896 166.192 22.4276C165.713 24.0858 165.171 25.7286 164.566 27.3529C164.337 27.976 163.987 28.7082 163.796 29.3171C160.914 29.338 157.812 29.3736 154.937 29.2805C155.513 27.1377 156.316 25.0927 157.049 22.9939C157.478 21.7651 157.713 20.4981 158.305 19.3333C154.567 19.3653 150.418 19.3313 146.681 19.2791C147.101 18.1977 147.498 17.1093 147.874 16.0145C148.138 15.2355 147.934 15.1542 148.536 14.4702C148.207 14.1533 147.416 14.1486 146.942 14.1279C143.651 13.9846 138.305 14.4937 138.18 18.3722C138.083 21.3729 138.698 20.9863 140.893 22.5246C140.114 24.7997 138.964 27.0762 138.22 29.3342L127.605 29.3347C126.335 29.3354 118.391 29.8365 118.692 27.9109C118.874 26.7438 119.803 23.7333 120.581 22.6816C120.88 22.2401 124.472 22.2993 124.935 22.4698C125.022 22.7915 123.093 25.6049 123.116 26.2073C123.949 26.4954 129.764 26.4217 130.774 26.2986C133.773 22.9538 132.21 20.1663 127.777 19.4724C126.401 19.2571 125.045 19.2985 123.656 19.2854C121.808 19.3135 119.946 19.1971 118.091 19.412C115.746 19.6836 113.126 20.9566 111.668 22.6669C110.284 24.429 110.149 26.4694 110.538 28.5559C110.591 28.8424 110.648 28.9612 110.818 29.2074C110.502 29.5063 102.579 29.2581 101.51 29.3146C101.225 29.3297 100.555 29.2626 100.285 29.157L100.289 29.0257C102.602 28.2892 105.474 24.6871 104.42 22.41C102.683 18.6567 96.9161 19.2986 93.2039 19.2936C93.8721 18.1108 94.7323 15.4906 94.9654 14.1785C93.6046 14.1615 88.23 13.8977 87.3525 14.4542C86.9306 15.0285 85.3306 20.0278 85.0267 21.0179C84.3104 22.824 83.8202 24.5471 83.1984 26.378L79.8691 36.0804C79.4176 37.4057 79.1132 38.5996 78.5909 39.9152C80.9285 39.9537 84.0914 40.0492 86.3758 39.9372C86.6195 38.6877 87.2733 37.6855 87.6677 36.4937L90.7609 27.2695C91.3035 25.6943 91.9972 23.9523 92.4591 22.3775C93.998 22.5417 94.7972 22.7041 96.1319 23.4956C96.6649 24.4635 96.8389 25.6327 96.4617 26.6719C95.7208 28.7124 93.1895 28.9094 91.6286 30.119C91.2076 30.5062 92.37 32.2176 92.7097 32.2399C97.4945 32.5533 102.423 32.3271 107.224 32.3336C111.14 32.3389 109.809 28.3269 112.854 30.9423C113.585 31.5702 115.614 32.1669 116.633 32.2163C122.419 32.4972 128.317 32.3939 134.118 32.2922M159.767 43.6062C160.414 43.5951 162.576 43.5125 162.699 44.1233L162.372 44.2935C161.978 44.3511 161.752 44.1699 161.41 43.9743C161.2 43.9755 160.312 43.9725 160.165 44.0421C158.735 44.7223 159.663 47.9248 159.954 48.7489L161.594 48.7286C161.798 48.386 162.088 47.7401 162.56 47.7712C162.629 48.0601 162.445 48.4278 162.246 48.6511C160.794 50.2745 158.63 48.3803 158.547 46.8035C158.469 45.3359 158.775 44.7042 159.767 43.6062ZM100.129 43.4643C100.265 43.4894 100.605 43.5544 100.614 43.6319C100.717 44.5435 100.6 47.9829 100.545 48.7443C102.199 48.7572 103.372 48.4962 102.751 46.5901C102.71 46.4646 102.267 46.3876 102.126 46.3505L100.641 46.1061L102.197 46.0432C102.699 46.044 102.968 46.0748 103.28 46.4443C103.43 47.3357 103.37 47.7479 103.207 48.6041C102.516 48.8966 99.9093 49.6471 99.4376 48.9057C99.5496 48.84 99.9144 48.6168 99.9185 48.5408C99.9703 47.5797 99.9556 44.5904 99.8172 43.7742L99.8005 43.6802L100.129 43.4643ZM163.49 43.4974C164.853 43.7201 165.928 43.575 165.928 43.575C165.928 43.575 166.068 47.858 166.056 48.6498C166.343 48.7351 166.503 48.7633 166.727 48.9532L166.679 49.0585C166.234 49.1665 165.275 49.1178 164.776 49.1104L164.659 49.0432L164.629 48.9027C164.749 48.8381 164.877 48.7705 164.98 48.6853C165.388 48.3463 165.24 44.7912 165.299 44.0633L163.974 43.8905C163.928 44.2502 163.949 44.7588 163.698 45.0064L163.555 44.9059C163.39 44.4347 163.457 43.9895 163.49 43.4974ZM147.139 43.518C147.634 43.5555 147.654 43.4901 148.019 43.7075C147.742 45.2249 147.755 46.8436 147.76 48.38C147.761 48.717 148.227 48.7747 148.536 49.014C148.18 49.0984 147.093 49.2013 146.753 49.0585C146.685 48.6608 146.818 48.7824 146.97 48.4369C147.395 47.4699 146.809 44.4813 147.139 43.518ZM150.555 43.4728L150.991 43.5711C151.303 43.9642 150.95 47.5279 151.08 48.5568C151.251 48.7277 151.367 48.8084 151.42 49.0288L151.074 49.1414C150.633 49.1347 150.471 49.1307 150.041 49.0523L149.954 48.9104C150.366 48.6137 150.469 48.2741 150.453 47.8147C150.405 46.4658 150.407 45.0267 150.29 43.6865L150.555 43.4728ZM104.689 43.5276C105.053 43.5403 105.124 43.5515 105.479 43.6309C105.695 43.9297 105.254 44.0294 105.244 44.4631C105.213 45.743 105.177 47.0669 105.223 48.345C105.229 48.5247 105.57 48.7453 105.729 48.8439L105.815 48.8971L105.827 49.0318L105.599 49.0968C105.189 49.1172 104.269 49.1717 103.927 49.0161L103.956 48.8825L104.57 48.6875C104.798 48.1798 104.397 44.0854 104.689 43.5276ZM115.453 46.0942C116.306 46.0765 117.427 46.1061 117.427 46.6123C116.867 46.6123 115.443 46.8358 115.453 46.0942ZM147.935 45.7746C148.612 45.6922 149.373 45.5513 149.966 45.8713C149.266 46.0117 148.614 45.9675 147.935 45.7746Z" stroke="black"/>
</svg>
