<svg width="35" height="31" viewBox="0 0 35 31" fill="none" xmlns="http://www.w3.org/2000/svg">
<line x1="16" y1="0.5" y2="0.5" stroke="#B3262E"/>
<line x1="16" y1="30.5" y2="30.5" stroke="#B3262E"/>
<line x1="0.5" y1="31" x2="0.500001" y2="1" stroke="#B3262E"/>
<line y1="-0.5" x2="16" y2="-0.5" transform="matrix(1 0 0 -1 19 0)" stroke="#B3262E"/>
<line y1="-0.5" x2="16" y2="-0.5" transform="matrix(1 0 0 -1 19 30)" stroke="#B3262E"/>
<line y1="-0.5" x2="30" y2="-0.5" transform="matrix(-4.37114e-08 -1 -1 4.37114e-08 34 31)" stroke="#B3262E"/>
<path fill-rule="evenodd" clip-rule="evenodd" d="M17.1587 7.32904C17.4203 7.19996 17.7082 7.13281 18 7.13281C18.2918 7.13281 18.5797 7.19996 18.8413 7.32904L27.0292 11.3703C27.0298 11.3705 27.0303 11.3708 27.0308 11.371C27.4702 11.5861 27.8408 11.9196 28.1007 12.3341C28.361 12.7491 28.4999 13.2285 28.5019 13.7183L28.5019 13.7213V22.3749C28.5019 23.8337 27.3066 24.9999 25.8525 24.9999H10.1494C8.69523 24.9999 7.5 23.8337 7.5 22.3749V13.7213L7.5 13.7187C7.50172 13.2292 7.64028 12.7499 7.90004 12.335C8.15959 11.9204 8.52981 11.5866 8.96894 11.3712C8.96929 11.371 8.96965 11.3708 8.97 11.3707L17.1587 7.32904ZM26.7 12.0442L26.3681 12.7167L18.1777 8.67426C18.1777 8.67424 18.1776 8.67422 18.1776 8.6742C18.1223 8.64697 18.0616 8.63281 18 8.63281C17.9384 8.63281 17.8776 8.64698 17.8224 8.67423C17.8223 8.67424 17.8223 8.67425 17.8223 8.67426L9.63194 12.7167L9.63 12.7177C9.4416 12.81 9.28277 12.9531 9.17144 13.1309C9.06032 13.3084 9.00095 13.5134 9 13.7228V22.3749C9 22.9871 9.5054 23.4999 10.1494 23.4999H25.8525C26.4965 23.4999 27.0019 22.9871 27.0019 22.3749V13.7231C27.0008 13.5136 26.9413 13.3086 26.83 13.1311C26.7184 12.9533 26.5594 12.8102 26.3708 12.718L26.7 12.0442Z" fill="#B3262E"/>
<path fill-rule="evenodd" clip-rule="evenodd" d="M16.7239 15.9453C17.053 15.6893 17.4581 15.5503 17.875 15.5503C18.292 15.5503 18.6971 15.6893 19.0262 15.9453L25.0853 20.6581C25.4122 20.9124 25.4711 21.3836 25.2168 21.7106C24.9625 22.0375 24.4913 22.0964 24.1643 21.8421L18.1053 17.1293L18.5657 16.5373L18.1053 17.1293C18.0394 17.0781 17.9584 17.0503 17.875 17.0503C17.7916 17.0503 17.7106 17.0781 17.6448 17.1293L17.6448 17.1293L11.5852 21.8421C11.2583 22.0964 10.7871 22.0375 10.5328 21.7105C10.2785 21.3836 10.3374 20.9124 10.6643 20.6581L16.7239 15.9453C16.7239 15.9453 16.7239 15.9453 16.7239 15.9453Z" fill="#B3262E"/>
<path fill-rule="evenodd" clip-rule="evenodd" d="M27.4727 12.5472C27.7228 12.8774 27.6578 13.3478 27.3276 13.5979L20.9526 18.426C20.6224 18.6761 20.152 18.6112 19.9019 18.281C19.6518 17.9508 19.7168 17.4804 20.047 17.2303L26.422 12.4022C26.7522 12.1521 27.2226 12.217 27.4727 12.5472Z" fill="#B3262E"/>
<path fill-rule="evenodd" clip-rule="evenodd" d="M8.27635 12.548C8.52602 12.2175 8.99635 12.1519 9.32686 12.4016L15.8425 17.3235C16.173 17.5731 16.2385 18.0435 15.9889 18.374C15.7392 18.7045 15.2689 18.77 14.9384 18.5204L8.42273 13.5985C8.09222 13.3488 8.02668 12.8785 8.27635 12.548Z" fill="#B3262E"/>
</svg>
