<svg width="35" height="31" viewBox="0 0 35 31" fill="none" xmlns="http://www.w3.org/2000/svg">
<path fill-rule="evenodd" clip-rule="evenodd" d="M12.4151 5.83358C12.5724 5.95707 12.749 6.12322 12.9522 6.32389C13.3874 6.7523 13.8924 7.43869 14.3258 8.09762C14.7639 8.76393 15.17 9.46537 15.3975 9.95358L15.3977 9.95389L15.3978 9.95421C15.5268 10.2316 15.6431 10.483 15.7248 10.7033C15.8078 10.927 15.8768 11.1731 15.8772 11.4417C15.8782 12.0038 15.573 12.4377 15.2791 12.8378C15.1947 12.9528 15.1229 13.047 15.0611 13.1282C14.9278 13.3032 14.8405 13.418 14.7705 13.5506C14.7023 13.6801 14.6824 13.7735 14.7147 13.924C14.7612 14.1409 14.9637 14.6157 15.3568 15.2369C15.737 15.8377 16.2575 16.5153 16.8794 17.1352C17.5012 17.755 18.1681 18.2618 18.7568 18.6286C19.3635 19.0065 19.8307 19.2004 20.0539 19.248C20.2092 19.2812 20.3062 19.2604 20.4359 19.1929C20.5727 19.1217 20.6944 19.0288 20.8837 18.8843C20.9581 18.8275 21.0429 18.7627 21.1432 18.6882L21.1433 18.6881L21.1509 18.6825C21.5524 18.3841 21.9985 18.0527 22.564 18.0533C22.8434 18.0536 23.0942 18.1325 23.315 18.2226C23.526 18.3087 23.7683 18.4308 24.0342 18.5647L24.0564 18.5759C24.5224 18.8109 25.2152 19.209 25.8859 19.6429C26.5448 20.0691 27.24 20.5667 27.6729 21.0029L27.6735 21.0035C27.8748 21.2068 28.0413 21.3834 28.1651 21.5406C28.285 21.6927 28.4165 21.8895 28.472 22.1344C28.5345 22.4101 28.4778 22.6396 28.4197 22.7987C28.3936 22.8705 28.3627 22.9393 28.3405 22.9886C28.3371 22.9963 28.3337 23.0038 28.3304 23.0111C28.3098 23.0568 28.2918 23.0967 28.2727 23.1423L28.2723 23.1434L28.2718 23.1445C28.0759 23.6091 27.8376 24.0547 27.5599 24.4755L27.559 24.4768L27.5582 24.4781C27.0156 25.2933 26.5051 25.8259 25.7116 26.1955C25.2993 26.3875 24.7102 26.5815 23.7946 26.4673C22.9139 26.3575 21.7682 25.9676 20.2046 25.0918L20.2042 25.0916C17.7019 23.6883 15.9657 22.4784 13.726 20.245C11.4929 18.0181 10.3952 16.5647 8.85761 13.7713C7.30967 10.9593 7.31188 9.22515 7.75394 8.28053C8.1251 7.4874 8.66307 6.97929 9.47555 6.4395L9.47715 6.43844L9.47875 6.43739C9.90007 6.16058 10.3458 5.92293 10.8105 5.72743L10.812 5.72678L10.8136 5.72615C10.8595 5.70704 10.8998 5.68901 10.9458 5.66839C10.953 5.66516 10.9603 5.66187 10.9679 5.65849C11.0173 5.63638 11.0862 5.60564 11.1579 5.5796C11.3168 5.52187 11.5458 5.46548 11.821 5.52755C12.0658 5.58274 12.2627 5.71383 12.4151 5.83358ZM11.3908 7.11063C11.0117 7.27025 10.6479 7.46417 10.304 7.68997C9.61763 8.14617 9.3234 8.46573 9.11253 8.91631C8.9724 9.21576 8.71306 10.3982 10.1717 13.048C11.6406 15.7166 12.6524 17.056 14.7852 19.1828C16.9113 21.303 18.5322 22.4341 20.9375 23.7831C22.4095 24.6075 23.3638 24.902 23.9802 24.9789C24.5617 25.0514 24.8667 24.9343 25.0783 24.8357C25.5324 24.6242 25.8534 24.332 26.3088 23.648C26.5352 23.3047 26.7295 22.9414 26.8893 22.5625C26.9109 22.511 26.932 22.4633 26.9499 22.4236C26.8799 22.3405 26.7728 22.2258 26.608 22.0593C26.2964 21.7455 25.7182 21.3209 25.0711 20.9023C24.4358 20.4913 23.7901 20.1216 23.3813 19.9154C23.0863 19.7668 22.8973 19.6722 22.7481 19.6114C22.603 19.5521 22.5608 19.5533 22.5624 19.5533C22.576 19.5533 22.5297 19.5268 22.0379 19.8922C21.9876 19.9295 21.9333 19.9712 21.8758 20.0152C21.6567 20.1832 21.3914 20.3866 21.1285 20.5235C20.7356 20.728 20.2846 20.831 19.741 20.715C19.2653 20.6136 18.6237 20.3128 17.9638 19.9018C17.286 19.4796 16.5285 18.9034 15.8205 18.1976C15.1126 17.4919 14.5236 16.7253 14.0893 16.0391C13.668 15.3733 13.351 14.7184 13.2481 14.2388C13.1308 13.6927 13.2377 13.2417 13.4436 12.8512C13.5763 12.5995 13.7746 12.3395 13.9378 12.1255C13.9858 12.0625 14.0308 12.0035 14.0702 11.9499C14.3855 11.5206 14.3781 11.4522 14.3773 11.4447C14.3772 11.4445 14.3772 11.4443 14.3772 11.4442C14.3772 11.4297 14.3739 11.3743 14.3185 11.225C14.2618 11.0722 14.1736 10.8789 14.0378 10.5869C13.8523 10.1891 13.4888 9.55485 13.0725 8.9218C12.6513 8.28142 12.217 7.70485 11.8996 7.39259L11.8991 7.39206L11.8985 7.39153C11.731 7.2261 11.6159 7.11889 11.5327 7.0491C11.4923 7.06716 11.4436 7.08866 11.3908 7.11063Z" fill="#B3262E"/>
<line x1="16" y1="0.5" y2="0.5" stroke="#B3262E"/>
<line x1="16" y1="30.5" y2="30.5" stroke="#B3262E"/>
<line x1="0.5" y1="31" x2="0.500001" y2="1" stroke="#B3262E"/>
<line y1="-0.5" x2="16" y2="-0.5" transform="matrix(1 0 0 -1 19 0)" stroke="#B3262E"/>
<line y1="-0.5" x2="16" y2="-0.5" transform="matrix(1 0 0 -1 19 30)" stroke="#B3262E"/>
<line y1="-0.5" x2="30" y2="-0.5" transform="matrix(-4.37114e-08 -1 -1 4.37114e-08 34 31)" stroke="#B3262E"/>
</svg>
