<svg width="35" height="31" viewBox="0 0 35 31" fill="none" xmlns="http://www.w3.org/2000/svg">
<line x1="16" y1="0.5" y2="0.5" stroke="#B3262E"/>
<line x1="16" y1="30.5" y2="30.5" stroke="#B3262E"/>
<line x1="0.5" y1="31" x2="0.500001" y2="1" stroke="#B3262E"/>
<line y1="-0.5" x2="16" y2="-0.5" transform="matrix(1 0 0 -1 19 0)" stroke="#B3262E"/>
<line y1="-0.5" x2="16" y2="-0.5" transform="matrix(1 0 0 -1 19 30)" stroke="#B3262E"/>
<line y1="-0.5" x2="30" y2="-0.5" transform="matrix(-4.37114e-08 -1 -1 4.37114e-08 34 31)" stroke="#B3262E"/>
<path fill-rule="evenodd" clip-rule="evenodd" d="M11.5 12.6719C11.5 8.67875 14.8948 5.5 19 5.5C23.1052 5.5 26.5 8.67875 26.5 12.6719C26.5 14.923 25.2829 17.7082 23.9495 20.1155C22.5963 22.559 21.0377 24.7603 20.2019 25.8891C20.064 26.0776 19.8837 26.231 19.6755 26.337C19.4663 26.4435 19.2348 26.499 19 26.499C18.7652 26.499 18.5337 26.4435 18.3245 26.337C18.1163 26.231 17.9359 26.0776 17.798 25.889C16.9622 24.7598 15.4037 22.5577 14.0504 20.1139C12.7172 17.7064 11.5 14.9214 11.5 12.6719ZM19 7C15.6521 7 13 9.57656 13 12.6719C13 14.5004 14.0328 16.9859 15.3627 19.3872C16.6689 21.746 18.1818 23.886 19 24.9917C19.8181 23.8865 21.3311 21.7473 22.6374 19.3888C23.9671 16.9878 25 14.5021 25 12.6719C25 9.57656 22.3479 7 19 7Z" fill="#B3262E"/>
<path fill-rule="evenodd" clip-rule="evenodd" d="M19 11.5C18.1716 11.5 17.5 12.1716 17.5 13C17.5 13.8284 18.1716 14.5 19 14.5C19.8284 14.5 20.5 13.8284 20.5 13C20.5 12.1716 19.8284 11.5 19 11.5ZM16 13C16 11.3431 17.3431 10 19 10C20.6569 10 22 11.3431 22 13C22 14.6569 20.6569 16 19 16C17.3431 16 16 14.6569 16 13Z" fill="#B3262E"/>
</svg>
